<svg width="20" height="20" viewBox="0 0 20 20" fill="none" xmlns="http://www.w3.org/2000/svg">
<g id="IconSimple / ATM">
<g id="icon">
<path d="M16.1531 17.4684C16.2553 17.5706 16.3939 17.628 16.5384 17.628C16.6829 17.628 16.8215 17.5706 16.9237 17.4684C17.0259 17.3662 17.0833 17.2276 17.0833 17.0831L17.0822 11.053L16.6049 3.89777C16.5488 3.04177 15.8317 2.37158 14.9741 2.37158H5.02582C4.61133 2.37241 4.21257 2.53036 3.90993 2.81358C3.60729 3.09681 3.42329 3.48424 3.39502 3.89777L2.91663 11.0895V17.0831C2.91663 17.2276 2.97403 17.3662 3.07622 17.4684C3.1784 17.5706 3.31699 17.628 3.4615 17.628C3.60601 17.628 3.7446 17.5706 3.84678 17.4684C3.94896 17.3662 4.00637 17.2276 4.00637 17.0831L4.00528 11.1255L4.48259 3.96969C4.50111 3.68472 4.74031 3.46133 5.02582 3.46133H14.9741C15.1122 3.4617 15.2451 3.51441 15.3459 3.60885C15.4467 3.70329 15.508 3.83242 15.5173 3.97024L15.9936 11.0895V17.0831C15.9936 17.2276 16.051 17.3662 16.1531 17.4684Z" fill="#54433B"/>
<path fill-rule="evenodd" clip-rule="evenodd" d="M6.73077 11.0896H13.2692C13.8702 11.0896 14.359 10.6008 14.359 9.99983V5.64086C14.359 5.03986 13.8702 4.55111 13.2692 4.55111H6.73077C6.12978 4.55111 5.64103 5.03986 5.64103 5.64086V9.99983C5.64103 10.6008 6.12978 11.0896 6.73077 11.0896ZM6.73077 9.99983V5.64086H13.2692L13.2698 9.99983H6.73077Z" fill="#54433B"/>
<path fill-rule="evenodd" clip-rule="evenodd" d="M5.64103 12.1793H8.91026C9.05477 12.1793 9.19336 12.2367 9.29554 12.3389C9.39773 12.4411 9.45513 12.5797 9.45513 12.7242C9.45513 12.8687 9.39773 13.0073 9.29554 13.1095C9.19336 13.2117 9.05477 13.2691 8.91026 13.2691V15.9934C8.91026 16.1379 8.85285 16.2765 8.75067 16.3787C8.64849 16.4809 8.5099 16.5383 8.36539 16.5383H6.1859C6.04139 16.5383 5.9028 16.4809 5.80062 16.3787C5.69844 16.2765 5.64103 16.1379 5.64103 15.9934V13.2691C5.49652 13.2691 5.35793 13.2117 5.25575 13.1095C5.15356 13.0073 5.09616 12.8687 5.09616 12.7242C5.09616 12.5797 5.15356 12.4411 5.25575 12.3389C5.35793 12.2367 5.49652 12.1793 5.64103 12.1793ZM6.73077 15.4485H7.82052V13.2691H6.73077V15.4485Z" fill="#54433B"/>
<path d="M11.475 13.1095C11.5772 13.0073 11.6346 12.8687 11.6346 12.7242C11.6346 12.5797 11.5772 12.4411 11.475 12.3389C11.3728 12.2367 11.2343 12.1793 11.0897 12.1793C10.9452 12.1793 10.8066 12.2367 10.7045 12.3389C10.6023 12.4411 10.5449 12.5797 10.5449 12.7242C10.5449 12.8687 10.6023 13.0073 10.7045 13.1095C10.8066 13.2117 10.9452 13.2691 11.0897 13.2691C11.2343 13.2691 11.3728 13.2117 11.475 13.1095Z" fill="#54433B"/>
<path d="M13.1096 13.1095C13.2118 13.0073 13.2692 12.8687 13.2692 12.7242C13.2692 12.5797 13.2118 12.4411 13.1096 12.3389C13.0075 12.2367 12.8689 12.1793 12.7244 12.1793C12.5799 12.1793 12.4413 12.2367 12.3391 12.3389C12.2369 12.4411 12.1795 12.5797 12.1795 12.7242C12.1795 12.8687 12.2369 13.0073 12.3391 13.1095C12.4413 13.2117 12.5799 13.2691 12.7244 13.2691C12.8689 13.2691 13.0075 13.2117 13.1096 13.1095Z" fill="#54433B"/>
<path d="M14.7443 13.1095C14.8464 13.0073 14.9039 12.8687 14.9039 12.7242C14.9039 12.5797 14.8464 12.4411 14.7443 12.3389C14.6421 12.2367 14.5035 12.1793 14.359 12.1793C14.2145 12.1793 14.0759 12.2367 13.9737 12.3389C13.8715 12.4411 13.8141 12.5797 13.8141 12.7242C13.8141 12.8687 13.8715 13.0073 13.9737 13.1095C14.0759 13.2117 14.2145 13.2691 14.359 13.2691C14.5035 13.2691 14.6421 13.2117 14.7443 13.1095Z" fill="#54433B"/>
<path d="M11.475 14.7441C11.5772 14.6419 11.6346 14.5033 11.6346 14.3588C11.6346 14.2143 11.5772 14.0757 11.475 13.9735C11.3728 13.8713 11.2343 13.8139 11.0897 13.8139C10.9452 13.8139 10.8066 13.8713 10.7045 13.9735C10.6023 14.0757 10.5449 14.2143 10.5449 14.3588C10.5449 14.5033 10.6023 14.6419 10.7045 14.7441C10.8066 14.8463 10.9452 14.9037 11.0897 14.9037C11.2343 14.9037 11.3728 14.8463 11.475 14.7441Z" fill="#54433B"/>
<path d="M13.1096 14.7441C13.2118 14.6419 13.2692 14.5033 13.2692 14.3588C13.2692 14.2143 13.2118 14.0757 13.1096 13.9735C13.0075 13.8713 12.8689 13.8139 12.7244 13.8139C12.5799 13.8139 12.4413 13.8713 12.3391 13.9735C12.2369 14.0757 12.1795 14.2143 12.1795 14.3588C12.1795 14.5033 12.2369 14.6419 12.3391 14.7441C12.4413 14.8463 12.5799 14.9037 12.7244 14.9037C12.8689 14.9037 13.0075 14.8463 13.1096 14.7441Z" fill="#54433B"/>
<path d="M14.7443 14.7441C14.8464 14.6419 14.9039 14.5033 14.9039 14.3588C14.9039 14.2143 14.8464 14.0757 14.7443 13.9735C14.6421 13.8713 14.5035 13.8139 14.359 13.8139C14.2145 13.8139 14.0759 13.8713 13.9737 13.9735C13.8715 14.0757 13.8141 14.2143 13.8141 14.3588C13.8141 14.5033 13.8715 14.6419 13.9737 14.7441C14.0759 14.8463 14.2145 14.9037 14.359 14.9037C14.5035 14.9037 14.6421 14.8463 14.7443 14.7441Z" fill="#54433B"/>
<path d="M11.475 16.3787C11.5772 16.2765 11.6346 16.1379 11.6346 15.9934C11.6346 15.8489 11.5772 15.7103 11.475 15.6081C11.3728 15.506 11.2343 15.4485 11.0897 15.4485C10.9452 15.4485 10.8066 15.506 10.7045 15.6081C10.6023 15.7103 10.5449 15.8489 10.5449 15.9934C10.5449 16.1379 10.6023 16.2765 10.7045 16.3787C10.8066 16.4809 10.9452 16.5383 11.0897 16.5383C11.2343 16.5383 11.3728 16.4809 11.475 16.3787Z" fill="#54433B"/>
<path d="M13.1096 16.3787C13.2118 16.2765 13.2692 16.1379 13.2692 15.9934C13.2692 15.8489 13.2118 15.7103 13.1096 15.6081C13.0075 15.506 12.8689 15.4485 12.7244 15.4485C12.5799 15.4485 12.4413 15.506 12.3391 15.6081C12.2369 15.7103 12.1795 15.8489 12.1795 15.9934C12.1795 16.1379 12.2369 16.2765 12.3391 16.3787C12.4413 16.4809 12.5799 16.5383 12.7244 16.5383C12.8689 16.5383 13.0075 16.4809 13.1096 16.3787Z" fill="#54433B"/>
<path d="M14.7443 16.3787C14.8464 16.2765 14.9039 16.1379 14.9039 15.9934C14.9039 15.8489 14.8464 15.7103 14.7443 15.6081C14.6421 15.506 14.5035 15.4485 14.359 15.4485C14.2145 15.4485 14.0759 15.506 13.9737 15.6081C13.8715 15.7103 13.8141 15.8489 13.8141 15.9934C13.8141 16.1379 13.8715 16.2765 13.9737 16.3787C14.0759 16.4809 14.2145 16.5383 14.359 16.5383C14.5035 16.5383 14.6421 16.4809 14.7443 16.3787Z" fill="#54433B"/>
</g>
</g>
</svg>
