<svg width="20" height="20" viewBox="0 0 20 20" fill="none" xmlns="http://www.w3.org/2000/svg">
<g id="IconSimple / Bank">
<path id="icon" d="M2.2 8.24977H4V13.2499H2.8C2.64087 13.2499 2.48826 13.3158 2.37574 13.433C2.26321 13.5502 2.2 13.7092 2.2 13.8749C2.2 14.0407 2.26321 14.1997 2.37574 14.3169C2.48826 14.4341 2.64087 14.4999 2.8 14.4999H17.2C17.3591 14.4999 17.5117 14.4341 17.6243 14.3169C17.7368 14.1997 17.8 14.0407 17.8 13.8749C17.8 13.7092 17.7368 13.5502 17.6243 13.433C17.5117 13.3158 17.3591 13.2499 17.2 13.2499H16V8.24977H17.8C17.9305 8.24964 18.0575 8.20515 18.1616 8.12306C18.2657 8.04097 18.3412 7.92576 18.3767 7.79491C18.4123 7.66405 18.4059 7.52469 18.3585 7.39797C18.3111 7.27125 18.2254 7.16407 18.1143 7.09271L10.3143 2.09258C10.2197 2.03205 10.111 2 10 2C9.88905 2 9.78027 2.03205 9.68575 2.09258L1.88575 7.09271C1.77462 7.16407 1.68887 7.27125 1.6415 7.39797C1.59413 7.52469 1.58773 7.66405 1.62327 7.79491C1.65881 7.92576 1.73435 8.04097 1.83843 8.12306C1.94251 8.20515 2.06945 8.24964 2.2 8.24977ZM5.2 8.24977H7.6V13.2499H5.2V8.24977ZM11.2 8.24977V13.2499H8.8V8.24977H11.2ZM14.8 13.2499H12.4V8.24977H14.8V13.2499ZM10 3.35824L15.6805 6.99974H4.3195L10 3.35824ZM19 16.375C19 16.5407 18.9368 16.6997 18.8243 16.8169C18.7117 16.9342 18.5591 17 18.4 17H1.6C1.44087 17 1.28826 16.9342 1.17574 16.8169C1.06321 16.6997 1 16.5407 1 16.375C1 16.2092 1.06321 16.0502 1.17574 15.933C1.28826 15.8158 1.44087 15.75 1.6 15.75H18.4C18.5591 15.75 18.7117 15.8158 18.8243 15.933C18.9368 16.0502 19 16.2092 19 16.375Z" fill="#54433B"/>
</g>
</svg>
