<svg width="40" height="40" viewBox="0 0 40 40" fill="none" xmlns="http://www.w3.org/2000/svg">
<g id="Farm">
<path id="Vector" d="M36.25 24.375C36.4158 24.375 36.5747 24.3092 36.6919 24.1919C36.8092 24.0747 36.875 23.9158 36.875 23.75C36.875 23.5842 36.8092 23.4253 36.6919 23.3081C36.5747 23.1908 36.4158 23.125 36.25 23.125C32.7337 23.1228 29.2365 23.6409 25.8719 24.6625C24.4833 23.7578 23.0399 22.94 21.55 22.2141C26.2212 20.3291 31.2128 19.3651 36.25 19.375C36.4158 19.375 36.5747 19.3092 36.6919 19.1919C36.8092 19.0747 36.875 18.9158 36.875 18.75C36.875 18.5842 36.8092 18.4253 36.6919 18.3081C36.5747 18.1908 36.4158 18.125 36.25 18.125C35.2021 18.125 34.1604 18.1646 33.125 18.2438V12.5C33.125 12.403 33.1024 12.3073 33.059 12.2205C33.0156 12.1337 32.9526 12.0582 32.875 12L22.875 4.5C22.7668 4.41886 22.6352 4.375 22.5 4.375C22.3648 4.375 22.2332 4.41886 22.125 4.5L12.125 12C12.0474 12.0582 11.9844 12.1337 11.941 12.2205C11.8976 12.3073 11.875 12.403 11.875 12.5V18.9375C9.20055 18.3963 6.47866 18.1241 3.75 18.125C3.58424 18.125 3.42527 18.1908 3.30806 18.3081C3.19085 18.4253 3.125 18.5842 3.125 18.75C3.125 18.9158 3.19085 19.0747 3.30806 19.1919C3.42527 19.3092 3.58424 19.375 3.75 19.375C9.65473 19.3634 15.4859 20.6853 20.8084 23.2419C26.1309 25.7986 30.8074 29.5242 34.4891 34.1406C34.5945 34.2641 34.7439 34.3417 34.9055 34.357C35.0672 34.3723 35.2285 34.324 35.3552 34.2225C35.4819 34.121 35.5641 33.9741 35.5844 33.813C35.6048 33.6519 35.5616 33.4892 35.4641 33.3594C34.4233 32.0613 33.3046 30.8278 32.1141 29.6656C33.4843 29.4725 34.8663 29.3754 36.25 29.375C36.4158 29.375 36.5747 29.3092 36.6919 29.1919C36.8092 29.0747 36.875 28.9158 36.875 28.75C36.875 28.5842 36.8092 28.4253 36.6919 28.3081C36.5747 28.1908 36.4158 28.125 36.25 28.125C34.4777 28.1255 32.7087 28.2781 30.9625 28.5812C29.7726 27.5059 28.5205 26.5016 27.2125 25.5734C30.1586 24.7753 33.1977 24.3723 36.25 24.375ZM25.625 19.5312C23.7078 20.0519 21.8314 20.7125 20.0109 21.5078C19.7984 21.4172 19.5875 21.3234 19.375 21.2359V15.625H25.625V19.5312ZM13.125 12.8125L22.5 5.78125L31.875 12.8125V18.3578C30.1921 18.5367 28.5222 18.8211 26.875 19.2094V15C26.875 14.8342 26.8092 14.6753 26.6919 14.5581C26.5747 14.4408 26.4158 14.375 26.25 14.375H18.75C18.5842 14.375 18.4253 14.4408 18.3081 14.5581C18.1908 14.6753 18.125 14.8342 18.125 15V20.7359C16.4928 20.1229 14.8226 19.6161 13.125 19.2188V12.8125ZM20.8594 34.0953C20.814 34.1638 20.7555 34.2227 20.6873 34.2685C20.6192 34.3144 20.5426 34.3464 20.4621 34.3626C20.3815 34.3789 20.2986 34.3791 20.2179 34.3633C20.1373 34.3474 20.0606 34.3158 19.9922 34.2703C15.181 31.0689 9.52893 29.3654 3.75 29.375C3.58424 29.375 3.42527 29.3092 3.30806 29.1919C3.19085 29.0747 3.125 28.9158 3.125 28.75C3.125 28.5842 3.19085 28.4253 3.30806 28.3081C3.42527 28.1908 3.58424 28.125 3.75 28.125C9.77519 28.1158 15.668 29.8921 20.6844 33.2297C20.8223 33.3214 20.9181 33.464 20.9509 33.6263C20.9837 33.7886 20.9508 33.9573 20.8594 34.0953ZM28.6828 33.3031C28.8013 33.4192 28.8689 33.5775 28.8707 33.7434C28.8724 33.9092 28.8082 34.069 28.6922 34.1875C28.5762 34.306 28.4178 34.3736 28.2519 34.3753C28.0861 34.3771 27.9263 34.3129 27.8078 34.1969C21.3942 27.8835 12.7496 24.3542 3.75 24.375C3.58424 24.375 3.42527 24.3092 3.30806 24.1919C3.19085 24.0747 3.125 23.9158 3.125 23.75C3.125 23.5842 3.19085 23.4253 3.30806 23.3081C3.42527 23.1908 3.58424 23.125 3.75 23.125C13.0768 23.1031 22.0359 26.7604 28.6828 33.3031Z" fill="#C33C5E"/>
</g>
</svg>
