<svg width="40" height="40" viewBox="0 0 40 40" fill="none" xmlns="http://www.w3.org/2000/svg">
<g id="Grains">
<path id="Vector" d="M32.5 9.37545C30.6766 9.37435 28.8733 9.75546 27.2062 10.4942C25.175 5.68482 20.4875 3.2942 20.2797 3.19107C20.1929 3.14762 20.0971 3.125 20 3.125C19.9029 3.125 19.8071 3.14762 19.7203 3.19107C19.5141 3.2942 14.8297 5.69107 12.7937 10.4942C11.1267 9.75546 9.32337 9.37435 7.5 9.37545C7.33424 9.37545 7.17527 9.4413 7.05806 9.55851C6.94085 9.67572 6.875 9.83469 6.875 10.0004V22.5005C6.875 25.9814 8.25781 29.3198 10.7192 31.7812C13.1806 34.2426 16.519 35.6255 20 35.6255C23.481 35.6255 26.8194 34.2426 29.2808 31.7812C31.7422 29.3198 33.125 25.9814 33.125 22.5005V10.0004C33.125 9.83469 33.0592 9.67572 32.9419 9.55851C32.8247 9.4413 32.6658 9.37545 32.5 9.37545ZM19.375 34.3598C16.3393 34.1957 13.4817 32.8751 11.3894 30.6695C9.29708 28.4638 8.12895 25.5406 8.125 22.5005V19.3911C11.1607 19.5552 14.0183 20.8758 16.1106 23.0814C18.2029 25.2871 19.371 28.2103 19.375 31.2505V34.3598ZM19.375 25.6676C18.3588 23.5107 16.7751 21.6707 14.7933 20.3449C12.8116 19.019 10.5065 18.2572 8.125 18.1411V10.6411C11.1607 10.8052 14.0183 12.1258 16.1106 14.3314C18.2029 16.5371 19.371 19.4603 19.375 22.5005V25.6676ZM13.9141 11.0551C15.4875 7.27076 18.9859 5.0442 20.0078 4.46295C21.0219 5.0442 24.5203 7.27545 26.0938 11.0551C23.1974 12.6817 21.0212 15.341 20 18.502C18.9807 15.3423 16.8075 12.6832 13.9141 11.0551ZM31.875 22.5005C31.871 25.5406 30.7029 28.4638 28.6106 30.6695C26.5183 32.8751 23.6607 34.1957 20.625 34.3598V31.2505C20.629 28.2103 21.7971 25.2871 23.8894 23.0814C25.9817 20.8758 28.8393 19.5552 31.875 19.3911V22.5005ZM31.875 18.1411C29.4935 18.2572 27.1884 19.019 25.2067 20.3449C23.2249 21.6707 21.6412 23.5107 20.625 25.6676V22.5005C20.629 19.4603 21.7971 16.5371 23.8894 14.3314C25.9817 12.1258 28.8393 10.8052 31.875 10.6411V18.1411Z" fill="#C33C5E"/>
</g>
</svg>
