<svg width="236" height="181" viewBox="0 0 236 181" fill="none" xmlns="http://www.w3.org/2000/svg">
<path d="M56.772 0.517153C54.0528 -2.20175 51.8959 -5.4298 50.4246 -8.98256C48.9533 -12.5353 48.1964 -16.3432 48.1972 -20.1885C48.1953 -24.6536 48.1953 -28.6436 48.1953 -28.6436L56.652 -28.6433C60.4972 -28.6438 64.3049 -27.8866 67.8573 -26.415C71.4098 -24.9434 74.6375 -22.7863 77.356 -20.0668C80.0755 -17.3483 82.2326 -14.1206 83.7042 -10.5681C85.1758 -7.01567 85.933 -3.20806 85.9325 0.637151L85.9328 9.09388C85.9328 9.09388 81.9426 9.09367 77.4777 9.09196C73.6324 9.09278 69.8245 8.33592 66.2718 6.86462C62.719 5.39333 59.4909 3.23642 56.772 0.517153Z" stroke="#9F3B55" stroke-miterlimit="10" stroke-linecap="round" stroke-linejoin="round"/>
<path d="M56.772 34.3375C54.0528 31.6186 51.8959 28.3905 50.4246 24.8378C48.9533 21.285 48.1964 17.4771 48.1972 13.6318C48.1953 9.16672 48.1953 5.17676 48.1953 5.17676L56.652 5.17697C60.4972 5.17653 64.3049 5.93374 67.8573 7.40533C71.4098 8.87692 74.6375 11.0341 77.356 13.7535C80.0755 16.472 82.2326 19.6997 83.7042 23.2522C85.1758 26.8046 85.933 30.6123 85.9325 34.4575L85.9328 42.9142C85.9328 42.9142 81.9426 42.914 77.4777 42.9123C73.6324 42.9131 69.8245 42.1562 66.2718 40.6849C62.719 39.2136 59.4909 37.0567 56.772 34.3375Z" stroke="#9F3B55" stroke-miterlimit="10" stroke-linecap="round" stroke-linejoin="round"/>
<path d="M19.0277 -20.0687C24.5191 -25.5593 31.9661 -28.6443 39.7315 -28.6455C42.5498 -28.6444 45.3682 -28.6438 48.1865 -28.6436C48.1865 -28.6436 48.1867 -24.6538 48.1882 -20.1888C48.1872 -12.4233 45.1023 -4.97617 39.6117 0.515236L39.61 0.516945C34.1186 6.00752 26.6715 9.09246 18.906 9.09346L10.4493 9.09368L10.4493 0.636733C10.4505 -7.12863 13.5355 -14.5757 19.026 -20.067L19.0277 -20.0687Z" stroke="#9F3B55" stroke-miterlimit="10" stroke-linecap="round" stroke-linejoin="round"/>
<path d="M42.1718 31.4844C36.6817 36.9762 33.5973 44.4235 33.5967 52.1888L33.5967 52.1912C33.5973 59.9566 36.6817 67.4039 42.1718 72.8957L48.1518 78.8756L54.1314 72.8957C59.6217 67.404 62.7062 59.9567 62.7068 52.1912L62.7068 52.1888C62.7062 44.4234 59.6217 36.9761 54.1314 31.4844" stroke="#9F3B55" stroke-miterlimit="10" stroke-linecap="round" stroke-linejoin="round"/>
<path d="M19.0277 13.7516C24.5191 8.26105 31.9661 5.17605 39.7315 5.17483C42.5498 5.17589 45.3682 5.17653 48.1865 5.17676C48.1865 5.17676 48.1867 9.1665 48.1882 13.6316C48.1872 21.397 45.1023 28.8441 39.6117 34.3355L39.61 34.3373C34.1186 39.8278 26.6715 42.9128 18.906 42.9138L10.4493 42.914L10.4493 34.457C10.4505 26.6917 13.5355 19.2446 19.026 13.7533L19.0277 13.7516Z" stroke="#9F3B55" stroke-miterlimit="10" stroke-linecap="round" stroke-linejoin="round"/>
<line x1="47.8955" y1="15.6465" x2="47.8955" y2="-230.238" stroke="#9F3B55" stroke-miterlimit="10" stroke-linecap="round" stroke-linejoin="round"/>
<path d="M207.762 0.177309C205.043 -2.54159 202.886 -5.76964 201.415 -9.3224C199.944 -12.8752 199.187 -16.683 199.187 -20.5284C199.186 -24.9934 199.186 -28.9834 199.186 -28.9834L207.642 -28.9832C211.487 -28.9836 215.295 -28.2264 218.848 -26.7548C222.4 -25.2832 225.628 -23.1261 228.346 -20.4067C231.066 -17.6882 233.223 -14.4605 234.694 -10.908C236.166 -7.35552 236.923 -3.5479 236.923 0.297307L236.923 8.75403C236.923 8.75403 232.933 8.75382 228.468 8.75211C224.623 8.75294 220.815 7.99608 217.262 6.52478C213.709 5.05348 210.481 2.89658 207.762 0.177309Z" stroke="#9F3B55" stroke-miterlimit="10" stroke-linecap="round" stroke-linejoin="round"/>
<path d="M207.761 33.9996C205.042 31.2807 202.885 28.0526 201.414 24.4999C199.943 20.9471 199.186 17.1393 199.186 13.2939C199.185 8.82883 199.185 4.83887 199.185 4.83887L207.641 4.83908C211.487 4.83864 215.294 5.59584 218.847 7.06744C222.399 8.53903 225.627 10.6962 228.345 13.4156C231.065 16.1341 233.222 19.3618 234.693 22.9143C236.165 26.4667 236.922 30.2744 236.922 34.1196L236.922 42.5763C236.922 42.5763 232.932 42.5761 228.467 42.5744C224.622 42.5752 220.814 41.8183 217.261 40.347C213.708 38.8757 210.48 36.7188 207.761 33.9996Z" stroke="#9F3B55" stroke-miterlimit="10" stroke-linecap="round" stroke-linejoin="round"/>
<path d="M207.762 67.8199C205.043 65.101 202.886 61.8729 201.415 58.3202C199.944 54.7674 199.187 50.9596 199.187 47.1142C199.186 42.6491 199.186 38.6592 199.186 38.6592L207.642 38.6594C211.487 38.6589 215.295 39.4162 218.848 40.8877C222.4 42.3593 225.628 44.5165 228.346 47.2359C231.066 49.9544 233.223 53.1821 234.694 56.7346C236.166 60.2871 236.923 64.0947 236.923 67.9399L236.923 76.3966C236.923 76.3966 232.933 76.3964 228.468 76.3947C224.623 76.3955 220.815 75.6387 217.262 74.1674C213.709 72.6961 210.481 70.5392 207.762 67.8199Z" stroke="#9F3B55" stroke-miterlimit="10" stroke-linecap="round" stroke-linejoin="round"/>
<path d="M207.761 101.642C205.042 98.9233 202.885 95.6952 201.414 92.1424C199.943 88.5897 199.186 84.7818 199.186 80.9365C199.185 76.4714 199.185 72.4814 199.185 72.4814L207.641 72.4817C211.487 72.4812 215.294 73.2384 218.847 74.71C222.399 76.1816 225.627 78.3387 228.345 81.0582C231.065 83.7767 233.222 87.0044 234.693 90.5569C236.165 94.1093 236.922 97.9169 236.922 101.762L236.922 110.219C236.922 110.219 232.932 110.219 228.467 110.217C224.622 110.218 220.814 109.461 217.261 107.99C213.708 106.518 210.48 104.361 207.761 101.642Z" stroke="#9F3B55" stroke-miterlimit="10" stroke-linecap="round" stroke-linejoin="round"/>
<path d="M207.761 135.462C205.042 132.744 202.885 129.516 201.414 125.963C199.943 122.41 199.186 118.602 199.186 114.757C199.185 110.292 199.185 106.302 199.185 106.302L207.641 106.302C211.487 106.302 215.294 107.059 218.847 108.53C222.399 110.002 225.627 112.159 228.345 114.878C231.065 117.597 233.222 120.825 234.693 124.377C236.165 127.93 236.922 131.737 236.922 135.582L236.922 144.039C236.922 144.039 232.932 144.039 228.467 144.037C224.622 144.038 220.814 143.281 217.261 141.81C213.708 140.339 210.48 138.182 207.761 135.462Z" stroke="#9F3B55" stroke-miterlimit="10" stroke-linecap="round" stroke-linejoin="round"/>
<path d="M170.016 -20.4086C175.507 -25.8991 182.954 -28.9841 190.72 -28.9853C193.538 -28.9843 196.356 -28.9836 199.175 -28.9834C199.175 -28.9834 199.175 -24.9937 199.177 -20.5286C199.176 -12.7632 196.091 -5.31601 190.6 0.175392L190.598 0.177101C185.107 5.66767 177.66 8.75262 169.894 8.75362L161.438 8.75383L161.438 0.296889C161.439 -7.46848 164.524 -14.9155 170.014 -20.4069L170.016 -20.4086Z" stroke="#9F3B55" stroke-miterlimit="10" stroke-linecap="round" stroke-linejoin="round"/>
<path d="M170.017 13.4137C175.508 7.92316 182.955 4.83816 190.721 4.83694C193.539 4.838 196.357 4.83864 199.176 4.83887C199.176 4.83887 199.176 8.82861 199.177 13.2937C199.176 21.0591 196.092 28.5063 190.601 33.9977L190.599 33.9994C185.108 39.4899 177.661 42.5749 169.895 42.5759L161.439 42.5761L161.439 34.1192C161.44 26.3538 164.525 18.9068 170.015 13.4154L170.017 13.4137Z" stroke="#9F3B55" stroke-miterlimit="10" stroke-linecap="round" stroke-linejoin="round"/>
<path d="M170.017 47.2359C175.508 41.7454 182.955 38.6604 190.721 38.6592C193.539 38.6603 196.357 38.6609 199.176 38.6611C199.176 38.6611 199.176 42.6509 199.177 47.1159C199.176 54.8814 196.092 62.3285 190.601 67.8199L190.599 67.8216C185.108 73.3122 177.661 76.3971 169.895 76.3981L161.439 76.3984L161.439 67.9414C161.44 60.1761 164.525 52.729 170.015 47.2377L170.017 47.2359Z" stroke="#9F3B55" stroke-miterlimit="10" stroke-linecap="round" stroke-linejoin="round"/>
<path d="M170.017 81.0563C175.508 75.5657 182.955 72.4807 190.721 72.4795C193.539 72.4806 196.357 72.4812 199.176 72.4814C199.176 72.4814 199.176 76.4712 199.177 80.9362C199.176 88.7017 196.092 96.1488 190.601 101.64L190.599 101.642C185.108 107.133 177.661 110.217 169.895 110.218L161.439 110.219L161.439 101.762C161.44 93.9964 164.525 86.5493 170.015 81.058L170.017 81.0563Z" stroke="#9F3B55" stroke-miterlimit="10" stroke-linecap="round" stroke-linejoin="round"/>
<path d="M193.161 132.609C187.671 138.101 184.587 145.548 184.586 153.314L184.586 153.316C184.587 161.082 187.671 168.529 193.161 174.021L199.141 180.001L205.121 174.021C210.611 168.529 213.696 161.082 213.696 153.316L213.696 153.314C213.696 145.548 210.611 138.101 205.121 132.609" stroke="#9F3B55" stroke-miterlimit="10" stroke-linecap="round" stroke-linejoin="round"/>
<path d="M170.017 114.877C175.508 109.386 182.955 106.301 190.721 106.3C193.539 106.301 196.357 106.302 199.176 106.302C199.176 106.302 199.176 110.292 199.177 114.757C199.176 122.522 196.092 129.969 190.601 135.461L190.599 135.462C185.108 140.953 177.661 144.038 169.895 144.039L161.439 144.039L161.439 135.582C161.44 127.817 164.525 120.37 170.015 114.878L170.017 114.877Z" stroke="#9F3B55" stroke-miterlimit="10" stroke-linecap="round" stroke-linejoin="round"/>
<line x1="199.041" y1="116.477" x2="199.041" y2="-197.441" stroke="#9F3B55" stroke-miterlimit="10" stroke-linecap="round" stroke-linejoin="round"/>
<path d="M115.196 -16.5377C117.915 -13.8188 120.072 -10.5907 121.543 -7.03795C123.015 -3.48519 123.771 0.322662 123.771 4.16803C123.772 8.63309 123.772 12.623 123.772 12.623L115.316 12.6228C111.471 12.6233 107.663 11.8661 104.11 10.3945C100.558 8.92289 97.3303 6.76575 94.6118 4.04632C91.8923 1.32781 89.7352 -1.8999 88.2636 -5.45237C86.792 -9.00483 86.0348 -12.8125 86.0352 -16.6577L86.035 -25.1144C86.035 -25.1144 90.0252 -25.1142 94.49 -25.1125C98.3354 -25.1133 102.143 -24.3564 105.696 -22.8851C109.249 -21.4138 112.477 -19.2569 115.196 -16.5377Z" stroke="#9F3B55" stroke-miterlimit="10" stroke-linecap="round" stroke-linejoin="round"/>
<path d="M115.196 85.0639C117.915 87.7828 120.072 91.0109 121.543 94.5636C123.015 98.1164 123.771 101.924 123.771 105.77C123.772 110.235 123.772 114.225 123.772 114.225L115.316 114.224C111.471 114.225 107.663 113.468 104.11 111.996C100.558 110.524 97.3303 108.367 94.6118 105.648C91.8923 102.929 89.7352 99.7017 88.2636 96.1492C86.792 92.5967 86.0348 88.7891 86.0352 84.9439L86.035 76.4872C86.035 76.4872 90.0252 76.4874 94.49 76.4891C98.3354 76.4883 102.143 77.2451 105.696 78.7164C109.249 80.1877 112.477 82.3446 115.196 85.0639Z" stroke="#9F3B55" stroke-miterlimit="10" stroke-linecap="round" stroke-linejoin="round"/>
<path d="M115.196 51.2416C117.915 53.9605 120.072 57.1886 121.543 60.7413C123.015 64.2941 123.771 68.102 123.771 71.9473C123.772 76.4124 123.772 80.4023 123.772 80.4023L115.316 80.4021C111.471 80.4026 107.663 79.6454 104.11 78.1738C100.558 76.7022 97.3303 74.545 94.6118 71.8256C91.8923 69.1071 89.7352 65.8794 88.2636 62.3269C86.792 58.7745 86.0348 54.9668 86.0352 51.1216L86.035 42.6649C86.035 42.6649 90.0252 42.6651 94.49 42.6668C98.3354 42.666 102.143 43.4229 105.696 44.8942C109.249 46.3655 112.477 48.5224 115.196 51.2416Z" stroke="#9F3B55" stroke-miterlimit="10" stroke-linecap="round" stroke-linejoin="round"/>
<path d="M115.197 17.4213C117.916 20.1402 120.073 23.3683 121.544 26.921C123.015 30.4738 123.772 34.2816 123.772 38.127C123.773 42.5921 123.773 46.582 123.773 46.582L115.317 46.5818C111.472 46.5823 107.664 45.8251 104.111 44.3535C100.559 42.8819 97.3312 40.7247 94.6127 38.0053C91.8933 35.2868 89.7362 32.0591 88.2646 28.5066C86.793 24.9541 86.0358 21.1465 86.0362 17.3013L86.036 8.8446C86.036 8.8446 90.0262 8.84481 94.491 8.84652C98.3364 8.84569 102.144 9.60255 105.697 11.0739C109.25 12.5452 112.478 14.7021 115.197 17.4213Z" stroke="#9F3B55" stroke-miterlimit="10" stroke-linecap="round" stroke-linejoin="round"/>
<path d="M152.941 4.04628C147.45 9.5368 140.003 12.6218 132.237 12.623C129.419 12.622 126.601 12.6213 123.782 12.6211C123.782 12.6211 123.782 8.63135 123.781 4.16629C123.782 -3.59914 126.866 -11.0463 132.357 -16.5377L132.359 -16.5394C137.85 -22.03 145.297 -25.1149 153.063 -25.1159L161.519 -25.1161L161.519 -16.6592C161.518 -8.89383 158.433 -1.4468 152.943 4.04458L152.941 4.04628Z" stroke="#9F3B55" stroke-miterlimit="10" stroke-linecap="round" stroke-linejoin="round"/>
<path d="M152.941 105.65C147.45 111.14 140.003 114.225 132.237 114.227C129.419 114.225 126.601 114.225 123.782 114.225C123.782 114.225 123.782 110.235 123.781 105.77C123.782 98.0044 126.866 90.5572 132.357 85.0658L132.359 85.0641C137.85 79.5735 145.297 76.4886 153.063 76.4876L161.519 76.4874L161.519 84.9443C161.518 92.7097 158.433 100.157 152.943 105.648L152.941 105.65Z" stroke="#9F3B55" stroke-miterlimit="10" stroke-linecap="round" stroke-linejoin="round"/>
<path d="M152.942 71.8275C147.451 77.318 140.004 80.4031 132.238 80.4043C129.42 80.4032 126.602 80.4026 123.783 80.4023C123.783 80.4023 123.783 76.4126 123.781 71.9475C123.782 64.1821 126.867 56.735 132.358 51.2436L132.36 51.2418C137.851 45.7513 145.298 42.6663 153.064 42.6653L161.52 42.6651L161.52 51.1221C161.519 58.8874 158.434 66.3345 152.944 71.8258L152.942 71.8275Z" stroke="#9F3B55" stroke-miterlimit="10" stroke-linecap="round" stroke-linejoin="round"/>
<path d="M152.941 38.0072C147.45 43.4977 140.003 46.5827 132.237 46.584C129.419 46.5829 126.601 46.5823 123.782 46.582C123.782 46.582 123.782 42.5923 123.781 38.1272C123.782 30.3618 126.866 22.9146 132.357 17.4232L132.359 17.4215C137.85 11.931 145.297 8.84602 153.063 8.84502L161.519 8.8448L161.519 17.3017C161.518 25.0671 158.433 32.5141 152.943 38.0055L152.941 38.0072Z" stroke="#9F3B55" stroke-miterlimit="10" stroke-linecap="round" stroke-linejoin="round"/>
<line x1="123.941" y1="-166.907" x2="123.941" y2="115.098" stroke="#9F3B55" stroke-miterlimit="10" stroke-linecap="round" stroke-linejoin="round"/>
</svg>
