<svg width="40" height="40" viewBox="0 0 40 40" fill="none" xmlns="http://www.w3.org/2000/svg">
<g id="HandWaving">
<path id="Vector" d="M33.8618 15.9378L31.1571 11.2503C30.7947 10.6242 30.259 10.1162 29.6144 9.78764C28.9699 9.4591 28.244 9.324 27.5244 9.39866C26.8049 9.47331 26.1222 9.75451 25.5588 10.2084C24.9955 10.6622 24.5754 11.2694 24.3493 11.9566L21.054 6.25033C20.6889 5.61965 20.148 5.109 19.4974 4.78079C18.8468 4.45259 18.1146 4.32106 17.3905 4.40227C16.6663 4.48349 15.9815 4.77394 15.4197 5.23812C14.858 5.70229 14.4437 6.32008 14.2274 7.01595C13.6337 6.28222 12.7852 5.79934 11.8512 5.66367C10.9172 5.52799 9.96634 5.74951 9.18846 6.28402C8.41057 6.81852 7.86284 7.62669 7.65458 8.54725C7.44631 9.4678 7.59283 10.433 8.0649 11.2503L8.89458 12.6863C8.18632 12.5381 7.45033 12.5981 6.77538 12.8589C6.10043 13.1197 5.51534 13.5702 5.09068 14.1561C4.66602 14.7419 4.41993 15.4381 4.38209 16.1607C4.34424 16.8833 4.51626 17.6014 4.8774 18.2285L11.1274 29.0597C11.985 30.5556 13.1309 31.8664 14.4988 32.9162C15.8667 33.966 17.4293 34.7339 19.0961 35.1753C20.211 35.4753 21.3604 35.6276 22.5149 35.6285C24.8169 35.6245 27.0773 35.0151 29.0694 33.8615C31.0615 32.7079 32.7151 31.0507 33.8644 29.0561C35.0136 27.0615 35.6181 24.7997 35.6171 22.4977C35.6161 20.1958 35.0096 17.9345 33.8586 15.941L33.8618 15.9378ZM33.9665 25.5738C33.3584 27.842 32.0914 29.8791 30.3257 31.4274C28.56 32.9756 26.3749 33.9656 24.0466 34.2722C21.7183 34.5787 19.3514 34.1881 17.2452 33.1496C15.1389 32.1111 13.3878 30.4714 12.2133 28.4378L5.96333 17.6066C5.64151 17.033 5.55868 16.3557 5.7328 15.7215C5.90691 15.0872 6.32394 14.5472 6.89351 14.2183C7.46308 13.8894 8.1393 13.7982 8.77563 13.9645C9.41197 14.1308 9.95714 14.5411 10.293 15.1066L13.2961 20.3128C13.3843 20.4451 13.5195 20.5389 13.6743 20.575C13.8291 20.6112 13.9919 20.5869 14.1295 20.5073C14.267 20.4277 14.3691 20.2986 14.4149 20.1463C14.4607 19.9941 14.4467 19.8301 14.3758 19.6878L9.14771 10.6253C8.97872 10.3408 8.8679 10.0256 8.82166 9.69796C8.77542 9.37031 8.79468 9.03673 8.87834 8.71658C8.96199 8.39643 9.10838 8.09607 9.30899 7.83292C9.50961 7.56977 9.76047 7.34907 10.047 7.18361C10.3336 7.01814 10.6502 6.91121 10.9784 6.86902C11.3066 6.82683 11.6399 6.85021 11.959 6.93781C12.278 7.02541 12.5766 7.17548 12.8372 7.37933C13.0979 7.58318 13.3155 7.83675 13.4774 8.12533L18.3477 16.5628C18.3887 16.6339 18.4434 16.6962 18.5085 16.7462C18.5736 16.7962 18.648 16.8329 18.7273 16.8541C18.8065 16.8754 18.8892 16.8808 18.9706 16.8701C19.052 16.8594 19.1305 16.8328 19.2016 16.7917C19.2727 16.7507 19.335 16.6961 19.385 16.6309C19.435 16.5658 19.4717 16.4915 19.4929 16.4122C19.5142 16.3329 19.5196 16.2502 19.5089 16.1688C19.4982 16.0874 19.4716 16.0089 19.4305 15.9378L15.6415 9.37533C15.3099 8.80097 15.2202 8.11844 15.3919 7.47788C15.5636 6.83733 15.9827 6.29122 16.5571 5.9597C17.1314 5.62818 17.814 5.5384 18.4545 5.71012C19.0951 5.88183 19.6412 6.30097 19.9727 6.87533L25.4415 16.3488C24.1912 17.4552 23.3863 18.9789 23.177 20.6353C22.9676 22.2917 23.3682 23.9676 24.304 25.3503C24.3494 25.4196 24.4082 25.4792 24.4769 25.5256C24.5456 25.572 24.6229 25.6042 24.7042 25.6205C24.7854 25.6367 24.8691 25.6366 24.9504 25.6202C25.0317 25.6038 25.1088 25.5714 25.1774 25.5248C25.246 25.4783 25.3047 25.4186 25.35 25.3492C25.3953 25.2798 25.4263 25.202 25.4413 25.1205C25.4563 25.039 25.4549 24.9553 25.4372 24.8743C25.4195 24.7933 25.3859 24.7166 25.3383 24.6488C24.5277 23.452 24.2089 21.9891 24.448 20.5636C24.6872 19.138 25.4659 17.8592 26.6227 16.9925C26.7451 16.901 26.8297 16.7677 26.8605 16.618C26.8913 16.4683 26.8662 16.3125 26.7899 16.18L25.7446 14.3753C25.5756 14.0908 25.4648 13.7756 25.4185 13.448C25.3723 13.1203 25.3916 12.7867 25.4752 12.4666C25.5589 12.1464 25.7052 11.8461 25.9059 11.5829C26.1065 11.3198 26.3573 11.0991 26.6439 10.9336C26.9305 10.7681 27.247 10.6612 27.5752 10.619C27.9034 10.5768 28.2367 10.6002 28.5558 10.6878C28.8749 10.7754 29.1735 10.9255 29.4341 11.1293C29.6948 11.3332 29.9124 11.5867 30.0743 11.8753L32.779 16.5628C33.5623 17.9113 34.0706 19.4017 34.2744 20.9479C34.4783 22.494 34.3736 24.0652 33.9665 25.5706V25.5738ZM29.3946 5.11595C29.4371 4.95617 29.5413 4.81975 29.6842 4.73658C29.8271 4.65341 29.9971 4.63026 30.1571 4.6722C31.2713 4.96499 32.3163 5.47629 33.2312 6.17638C34.1462 6.87647 34.9129 7.75139 35.4868 8.75033L35.5383 8.84095C35.6194 8.98342 35.6412 9.15202 35.5991 9.31042C35.557 9.46883 35.4544 9.60436 35.3133 9.68783C35.2423 9.72904 35.1637 9.75583 35.0823 9.76666C35.0009 9.7775 34.9181 9.77217 34.8387 9.75098C34.7593 9.72979 34.6849 9.69316 34.6197 9.64318C34.5545 9.5932 34.4997 9.53085 34.4586 9.4597L34.4071 9.37064C33.9159 8.51548 33.2595 7.7665 32.4763 7.16726C31.693 6.56801 30.7985 6.13045 29.8446 5.88002C29.7647 5.85963 29.6897 5.82366 29.6238 5.77416C29.5579 5.72466 29.5024 5.66262 29.4606 5.59161C29.4188 5.52059 29.3914 5.44201 29.3801 5.36038C29.3688 5.27874 29.3737 5.19568 29.3946 5.11595ZM12.1493 36.6378C12.0907 36.7119 12.0162 36.7717 11.9312 36.8129C11.8462 36.854 11.7531 36.8754 11.6586 36.8753C11.5186 36.875 11.3827 36.8277 11.2727 36.741C9.46624 35.3156 7.9489 33.558 6.8024 31.5628C6.75717 31.4917 6.72681 31.4121 6.71313 31.329C6.69945 31.2458 6.70273 31.1607 6.72279 31.0788C6.74284 30.997 6.77925 30.92 6.82982 30.8526C6.8804 30.7851 6.94409 30.7286 7.01707 30.6864C7.09004 30.6442 7.1708 30.6173 7.25448 30.6071C7.33816 30.5969 7.42303 30.6038 7.50398 30.6273C7.58494 30.6508 7.6603 30.6904 7.72555 30.7438C7.7908 30.7971 7.84457 30.8631 7.88365 30.9378C8.95157 32.7954 10.3644 34.432 12.0461 35.7597C12.1106 35.8106 12.1644 35.8736 12.2045 35.9453C12.2445 36.017 12.2701 36.0958 12.2797 36.1774C12.2892 36.2589 12.2826 36.3416 12.2603 36.4206C12.2379 36.4996 12.2002 36.5734 12.1493 36.6378Z" fill="#C33C5E"/>
</g>
</svg>
