<svg width="40" height="40" viewBox="0 0 40 40" fill="none" xmlns="http://www.w3.org/2000/svg">
<g id="HandHeart">
<path id="Vector" d="M35.6094 22.5377C35.2188 22.237 34.7639 22.0307 34.2803 21.935C33.7967 21.8393 33.2976 21.8568 32.8219 21.9862L30.9547 22.4158C34.8844 19.044 36.875 15.7158 36.875 12.5002C36.875 8.70959 33.8281 5.62522 30.0844 5.62522C28.9551 5.61619 27.8414 5.88928 26.8444 6.41972C25.8474 6.95015 24.9986 7.72113 24.375 8.66272C23.7514 7.72113 22.9026 6.95015 21.9056 6.41972C20.9086 5.88928 19.7949 5.61619 18.6656 5.62522C14.9219 5.62522 11.875 8.70959 11.875 12.5002C11.875 14.3518 12.5172 16.1627 13.8766 18.1252C12.7776 18.1661 11.7351 18.6223 10.9594 19.4018L7.24062 23.1252H2.5C2.00272 23.1252 1.52581 23.3228 1.17417 23.6744C0.822544 24.026 0.625 24.5029 0.625 25.0002V31.2502C0.625 31.7475 0.822544 32.2244 1.17417 32.576C1.52581 32.9277 2.00272 33.1252 2.5 33.1252H18.75C18.8027 33.1256 18.8552 33.1193 18.9062 33.1065L28.9062 30.6065C28.9382 30.5982 28.9695 30.5877 29 30.5752L35.0656 27.9908L35.1 27.9752C35.5887 27.7309 36.0072 27.3663 36.316 26.9156C36.6249 26.4649 36.8139 25.943 36.8653 25.3991C36.9168 24.8551 36.8289 24.3071 36.61 23.8065C36.3911 23.3059 36.0483 22.8693 35.6141 22.5377H35.6094ZM18.6656 6.87522C19.7584 6.86157 20.8304 7.17424 21.7445 7.77324C22.6586 8.37224 23.3732 9.23032 23.7969 10.2377C23.844 10.3523 23.9241 10.4504 24.027 10.5194C24.1299 10.5884 24.2511 10.6252 24.375 10.6252C24.4989 10.6252 24.6201 10.5884 24.723 10.5194C24.8259 10.4504 24.906 10.3523 24.9531 10.2377C25.3768 9.23032 26.0914 8.37224 27.0055 7.77324C27.9196 7.17424 28.9916 6.86157 30.0844 6.87522C33.0875 6.87522 35.625 9.45178 35.625 12.5002C35.625 15.8237 33.1047 19.3752 28.1344 23.0643L25.1172 23.7502C25.4499 23.1814 25.6251 22.5342 25.625 21.8752C25.625 20.8807 25.2299 19.9268 24.5267 19.2236C23.8234 18.5203 22.8696 18.1252 21.875 18.1252H15.4203C13.8578 16.094 13.125 14.2971 13.125 12.5002C13.125 9.45178 15.6625 6.87522 18.6656 6.87522ZM1.875 31.2502V25.0002C1.875 24.8345 1.94085 24.6755 2.05806 24.5583C2.17527 24.4411 2.33424 24.3752 2.5 24.3752H6.875V31.8752H2.5C2.33424 31.8752 2.17527 31.8094 2.05806 31.6922C1.94085 31.5749 1.875 31.416 1.875 31.2502ZM34.5516 26.8487L28.55 29.4065L18.6734 31.8752H8.125V24.0096L11.8438 20.2908C12.1331 19.9997 12.4774 19.7688 12.8567 19.6116C13.2359 19.4545 13.6426 19.3741 14.0531 19.3752H21.875C22.538 19.3752 23.1739 19.6386 23.6428 20.1075C24.1116 20.5763 24.375 21.2122 24.375 21.8752C24.375 22.5383 24.1116 23.1741 23.6428 23.643C23.1739 24.1118 22.538 24.3752 21.875 24.3752H17.5C17.3342 24.3752 17.1753 24.4411 17.0581 24.5583C16.9408 24.6755 16.875 24.8345 16.875 25.0002C16.875 25.166 16.9408 25.3249 17.0581 25.4422C17.1753 25.5594 17.3342 25.6252 17.5 25.6252H22.5C22.5473 25.6254 22.5945 25.6202 22.6406 25.6096L33.1094 23.2018H33.1344C33.6035 23.0774 34.102 23.1307 34.5342 23.3513C34.9664 23.572 35.3019 23.9446 35.4763 24.3975C35.6506 24.8504 35.6515 25.3518 35.4789 25.8053C35.3062 26.2589 34.972 26.6326 34.5406 26.8549L34.5516 26.8487Z" fill="#C33C5E"/>
</g>
</svg>
