<svg width="40" height="40" viewBox="0 0 40 40" fill="none" xmlns="http://www.w3.org/2000/svg">
<g id="Handshake">
<path id="Vector" d="M39.176 17.1385L35.1869 9.16974C35.0769 8.94945 34.9245 8.753 34.7385 8.59162C34.5525 8.43023 34.3365 8.30706 34.1029 8.22914C33.8693 8.15123 33.6226 8.12009 33.377 8.13751C33.1314 8.15493 32.8916 8.22057 32.6713 8.33067L28.5744 10.3713L20.1557 8.1463C20.0533 8.11928 19.9456 8.11928 19.8432 8.1463L11.4244 10.3713L7.32755 8.32286C7.10728 8.21276 6.86748 8.14712 6.62184 8.1297C6.37621 8.11228 6.12954 8.14341 5.89594 8.22133C5.66234 8.29925 5.44637 8.42241 5.26037 8.5838C5.07438 8.74519 4.92199 8.94164 4.81192 9.16192L0.822861 17.1385C0.712756 17.3588 0.647119 17.5986 0.629698 17.8442C0.612277 18.0898 0.643414 18.3365 0.721329 18.5701C0.799245 18.8037 0.922415 19.0197 1.0838 19.2057C1.24519 19.3917 1.44164 19.544 1.66192 19.6541L5.92599 21.7869L14.6369 28.0088C14.7003 28.0544 14.772 28.0873 14.8479 28.1057L24.8479 30.6057C24.9519 30.6329 25.0612 30.6329 25.1652 30.6055C25.2693 30.5781 25.3645 30.5244 25.4416 30.4494L34.1197 21.7713L38.3385 19.6619C38.5588 19.5519 38.7552 19.3995 38.9166 19.2135C39.078 19.0275 39.2012 18.8115 39.2791 18.5779C39.357 18.3443 39.3881 18.0976 39.3707 17.852C39.3533 17.6064 39.2877 17.3666 39.1776 17.1463L39.176 17.1385ZM31.2072 22.9119L25.3947 18.2557C25.2744 18.1591 25.1226 18.1105 24.9686 18.1192C24.8145 18.1278 24.6691 18.1931 24.5604 18.3025C21.5151 21.3713 18.101 20.976 15.9213 19.5838C15.8411 19.5323 15.7734 19.4635 15.7234 19.3823C15.6734 19.3012 15.6422 19.2098 15.6322 19.115C15.6216 19.0238 15.6316 18.9313 15.6617 18.8445C15.6917 18.7576 15.7409 18.6787 15.8057 18.6135L22.7526 11.8744H28.3635L32.9885 21.126L31.2072 22.9119ZM1.90724 18.1744C1.85727 18.0197 1.8696 17.8515 1.94161 17.7057L5.93692 9.7213C5.98819 9.61811 6.06698 9.53111 6.16459 9.46989C6.2622 9.40868 6.37484 9.37564 6.49005 9.37442C6.58671 9.37501 6.68191 9.39801 6.76817 9.44161L10.5182 11.3166L5.96974 20.4119L2.21974 18.5369C2.14639 18.5 2.08103 18.449 2.02741 18.3868C1.97379 18.3246 1.93296 18.2524 1.90724 18.1744ZM24.8072 29.3072L15.2666 26.9213L7.04786 21.051L11.7885 11.5619L19.9994 9.3963L24.6432 10.6244H22.4994C22.3367 10.6243 22.1803 10.6876 22.0635 10.801L14.9229 17.7275C14.7241 17.9263 14.5726 18.1671 14.4795 18.4323C14.3865 18.6975 14.3542 18.9802 14.3851 19.2595C14.416 19.5389 14.5093 19.8077 14.6581 20.0461C14.8069 20.2845 15.0074 20.4864 15.2447 20.6369C18.351 22.6229 22.14 22.1994 25.0354 19.5729L30.3119 23.801L24.8072 29.3072ZM38.0885 18.1744C38.0628 18.2524 38.0219 18.3246 37.9683 18.3868C37.9147 18.449 37.8493 18.5 37.776 18.5369L34.026 20.4119L29.4807 11.3166L33.2307 9.44161C33.3782 9.36978 33.5481 9.35884 33.7036 9.41117C33.8591 9.4635 33.9878 9.57489 34.0619 9.7213L38.051 17.6979C38.1272 17.845 38.1418 18.0165 38.0916 18.1744H38.0885ZM19.9901 33.9057C19.9554 34.04 19.877 34.159 19.7672 34.2439C19.6574 34.3287 19.5225 34.3747 19.3838 34.3744C19.3311 34.3746 19.2787 34.3683 19.2276 34.3557L12.715 32.726C12.6388 32.7073 12.5667 32.6745 12.5026 32.6291L8.38692 29.6869C8.25204 29.5906 8.16095 29.4446 8.1337 29.2811C8.10645 29.1176 8.14526 28.9499 8.24161 28.815C8.33796 28.6802 8.48395 28.5891 8.64745 28.5618C8.81096 28.5346 8.9786 28.5734 9.11349 28.6697L13.1322 31.54L19.5385 33.1416C19.6185 33.1618 19.6937 33.1977 19.7598 33.2471C19.8258 33.2965 19.8815 33.3585 19.9234 33.4296C19.9654 33.5006 19.9929 33.5792 20.0043 33.661C20.0158 33.7427 20.0109 33.8258 19.9901 33.9057Z" fill="#AF0B35"/>
</g>
</svg>
