<svg width="617" height="597" viewBox="0 0 617 597" fill="none" xmlns="http://www.w3.org/2000/svg">
<mask id="mask0_3671_4708" style="mask-type:alpha" maskUnits="userSpaceOnUse" x="0" y="0" width="617" height="597">
<rect width="616.726" height="596.015" fill="url(#paint0_linear_3671_4708)"/>
</mask>
<g mask="url(#mask0_3671_4708)">
<path fill-rule="evenodd" clip-rule="evenodd" d="M204.31 508.061V493.317C204.31 476.742 195.75 464.643 182.823 458.04C185.032 458.272 187.288 458.396 189.586 458.396H204.31V443.651C204.31 427.076 195.75 414.977 182.822 408.374C185.032 408.606 187.288 408.73 189.586 408.73H202.289V421.446C202.289 447.452 223.343 462.463 249.315 462.463H262.012V594.783C262.012 595.342 262.464 595.794 263.022 595.794C263.581 595.794 264.033 595.342 264.033 594.783V462.463H276.73C302.701 462.463 323.756 447.452 323.756 421.446V406.702H309.031C306.734 406.702 304.477 406.825 302.268 407.057C315.195 400.455 323.756 388.356 323.756 371.78V359.05H336.46C357.672 359.05 375.599 349.032 381.458 331.193V445.989C381.458 446.548 381.91 447.001 382.468 447.001C383.027 447.001 383.479 446.548 383.479 445.989V331.193C389.338 349.032 407.264 359.05 428.477 359.05H443.202V344.306C443.202 327.731 434.642 315.632 421.714 309.029C423.923 309.261 426.18 309.385 428.477 309.385H441.181V322.028C441.181 348.035 462.235 363.046 488.207 363.046H500.903V495.365C500.903 495.924 501.355 496.377 501.914 496.377C502.472 496.377 502.924 495.924 502.924 495.365V363.046H515.621C541.593 363.046 562.647 348.035 562.647 322.028V307.284H547.922C545.625 307.284 543.369 307.408 541.159 307.64C554.087 301.037 562.647 288.938 562.647 272.363V257.618H547.922C545.625 257.618 543.369 257.742 541.159 257.974C554.087 251.371 562.647 239.272 562.647 222.697V207.953H547.922C545.625 207.953 543.369 208.076 541.159 208.309C554.087 201.706 562.647 189.607 562.647 173.031V158.287H547.922C545.625 158.287 543.369 158.411 541.159 158.643C554.087 152.04 562.647 139.941 562.647 123.366V108.622H547.922C545.625 108.622 543.369 108.745 541.159 108.977C554.087 102.375 562.647 90.2755 562.647 73.7V58.9559H547.922C537.171 58.9559 527.269 61.5356 519.348 66.3955C523.849 59.2978 526.423 50.2431 526.423 40.9075C526.423 26.6231 520.52 13.3536 511.017 6.27759L503.12 0.396606C502.404 -0.136475 501.424 -0.136475 500.708 0.396606L492.811 6.27759C483.308 13.3536 477.405 26.6231 477.405 40.9078C477.405 50.2479 479.975 59.2968 484.475 66.3926C476.555 61.5345 466.654 58.9559 455.905 58.9559H441.18V73.7C441.18 90.2755 449.741 102.375 462.668 108.977C460.459 108.745 458.203 108.622 455.905 108.622H443.202V95.9782C443.202 69.9718 422.148 54.9607 396.176 54.9607H368.761C342.789 54.9607 321.735 69.9718 321.735 95.9782V110.722H336.46C338.757 110.722 341.014 110.599 343.223 110.367C330.295 116.969 321.735 129.068 321.735 145.644V158.374H309.031C298.28 158.374 288.377 160.953 280.456 165.813C284.958 158.715 287.531 149.661 287.531 140.325C287.531 126.041 281.628 112.771 272.125 105.695L264.228 99.8142C263.512 99.2811 262.532 99.2811 261.816 99.8142L253.919 105.695C244.416 112.771 238.513 126.041 238.513 140.325C238.513 149.665 241.083 158.714 245.583 165.81C237.663 160.952 227.763 158.374 217.014 158.374H202.289V173.118C202.289 189.693 210.849 201.792 223.777 208.395C221.567 208.163 219.311 208.039 217.014 208.039H202.289V222.783C202.289 239.359 210.85 251.458 223.777 258.061C221.568 257.828 219.311 257.705 217.014 257.705H204.31V244.989C204.31 218.983 183.256 203.971 157.284 203.971H129.87C103.898 203.971 82.8438 218.983 82.8438 244.989V259.733H97.5683C99.8659 259.733 102.122 259.61 104.332 259.377C91.404 265.98 82.8438 278.079 82.8438 294.655V309.399H97.5683C99.8656 309.399 102.122 309.275 104.331 309.043C91.4038 315.646 82.8438 327.745 82.8438 344.32V359.064H97.5683C99.8659 359.064 102.122 358.941 104.332 358.709C91.404 365.311 82.8438 377.411 82.8438 393.986V408.73H97.5683C99.8659 408.73 102.122 408.606 104.332 408.374C91.404 414.977 82.8438 427.076 82.8438 443.651V458.396H97.5683C99.8659 458.396 102.122 458.272 104.332 458.04C91.404 464.643 82.8438 476.742 82.8438 493.317V508.061H97.5683C118.781 508.061 136.707 498.043 142.567 480.203V595C142.567 595.559 143.019 596.012 143.577 596.012C144.135 596.012 144.587 595.559 144.587 595V480.203C150.447 498.043 168.373 508.061 189.586 508.061H204.31ZM202.289 257.71L202.289 244.989C202.289 233.233 197.782 223.31 189.254 216.291C181.186 209.652 169.832 205.995 157.284 205.995H144.594V218.716C144.594 218.738 144.594 218.761 144.593 218.783C144.593 218.808 144.592 218.832 144.591 218.857C144.59 218.881 144.589 218.905 144.588 218.928C144.588 218.948 144.588 218.967 144.587 218.987V219.001C144.66 230.631 149.158 240.452 157.617 247.413C165.684 254.053 177.038 257.71 189.586 257.71H202.289ZM204.31 259.728L204.31 272.449C204.31 284.205 208.818 294.128 217.346 301.147C225.413 307.786 236.767 311.443 249.315 311.443H262.005V298.722C262.005 298.676 262.007 298.631 262.009 298.586C262.01 298.544 262.012 298.503 262.012 298.46V298.431C261.937 286.804 257.44 276.985 248.983 270.025C240.915 263.385 229.562 259.728 217.014 259.728H204.31ZM202.289 259.733H189.586C187.288 259.733 185.032 259.61 182.822 259.377C195.75 265.98 204.31 278.079 204.31 294.655V307.37H217.014C219.311 307.37 221.567 307.494 223.777 307.726C210.849 301.124 202.289 289.024 202.289 272.449V259.733ZM202.289 307.375L202.289 294.655C202.289 282.899 197.782 272.975 189.254 265.957C181.186 259.317 169.832 255.661 157.284 255.661H144.594V268.381C144.594 268.429 144.593 268.476 144.591 268.523C144.589 268.566 144.588 268.609 144.587 268.653V268.667C144.66 280.297 149.158 290.118 157.617 297.079C165.684 303.719 177.038 307.375 189.586 307.375H202.289ZM204.31 309.394L204.31 322.115C204.31 333.87 208.818 343.794 217.346 350.812C225.413 357.452 236.767 361.109 249.315 361.109H262.005V348.388C262.005 348.342 262.007 348.297 262.009 348.251C262.01 348.21 262.012 348.168 262.012 348.126V348.097C261.937 336.469 257.44 326.65 248.983 319.69C240.915 313.051 229.562 309.394 217.014 309.394H204.31ZM202.289 309.399H189.586C187.288 309.399 185.032 309.275 182.823 309.043C195.75 315.646 204.31 327.745 204.31 344.32V357.036H217.014C219.311 357.036 221.567 357.16 223.777 357.392C210.849 350.789 202.289 338.69 202.289 322.115V309.399ZM202.289 357.041L202.289 344.32C202.289 332.564 197.782 322.641 189.254 315.622C181.186 308.983 169.832 305.326 157.284 305.326H144.594V318.047C144.594 318.139 144.588 318.227 144.587 318.319V318.333C144.66 329.963 149.158 339.784 157.617 346.745C165.684 353.384 177.038 357.041 189.586 357.041H202.289ZM204.31 359.06L204.31 371.78C204.31 383.536 208.818 393.46 217.346 400.478C225.413 407.118 236.767 410.774 249.315 410.774H262.005V398.053C262.005 398.007 262.007 397.962 262.009 397.917C262.01 397.875 262.012 397.834 262.012 397.792V397.763C261.937 386.135 257.44 376.316 248.983 369.356C240.915 362.716 229.562 359.06 217.014 359.06H204.31ZM202.289 359.064H189.586C187.288 359.064 185.032 358.941 182.823 358.709C195.75 365.311 204.31 377.411 204.31 393.986V406.702H217.014C219.311 406.702 221.567 406.825 223.777 407.057C210.849 400.455 202.289 388.356 202.289 371.78V359.064ZM202.289 406.706L202.289 393.986C202.289 382.23 197.782 372.306 189.254 365.288C181.186 358.648 169.832 354.992 157.284 354.992H144.594V367.713C144.594 367.76 144.593 367.807 144.591 367.854C144.589 367.897 144.588 367.94 144.587 367.984V367.998C144.66 379.628 149.158 389.449 157.617 396.41C165.684 403.05 177.038 406.706 189.586 406.706H202.289ZM204.31 408.725H217.014C229.562 408.725 240.915 412.382 248.983 419.021C257.44 425.981 261.937 435.801 262.012 447.428V447.457C262.012 447.5 262.01 447.541 262.009 447.583C262.007 447.628 262.005 447.673 262.005 447.719V460.44H249.315C236.767 460.44 225.413 456.783 217.346 450.144C208.818 443.125 204.31 433.202 204.31 421.446V408.73L204.31 408.725ZM323.756 160.388H336.46C338.757 160.388 341.013 160.264 343.223 160.032C330.295 166.635 321.735 178.734 321.735 195.309V208.039H309.031C306.734 208.039 304.477 208.163 302.268 208.395C315.195 201.792 323.756 189.693 323.756 173.118V160.388ZM323.756 210.054H336.46C338.757 210.054 341.013 209.93 343.223 209.698C330.295 216.3 321.735 228.4 321.735 244.975V257.705H309.031C306.734 257.705 304.477 257.828 302.268 258.061C315.195 251.458 323.756 239.359 323.756 222.783V210.054ZM323.756 259.719H336.46C338.757 259.719 341.014 259.596 343.223 259.363C330.295 265.966 321.735 278.065 321.735 294.641V307.37H309.031C306.734 307.37 304.477 307.494 302.268 307.726C315.195 301.124 323.756 289.024 323.756 272.449V259.719ZM323.756 309.385H336.46C338.757 309.385 341.013 309.261 343.223 309.029C330.295 315.632 321.735 327.731 321.735 344.306V357.036H309.031C306.734 357.036 304.477 357.16 302.268 357.392C315.195 350.789 323.756 338.69 323.756 322.115V309.385ZM84.8645 506.038V493.317C84.8645 481.561 89.3724 471.638 97.9006 464.619C105.968 457.98 117.322 454.323 129.87 454.323H142.56V467.044C142.56 467.092 142.561 467.138 142.563 467.185C142.565 467.228 142.566 467.272 142.567 467.315V467.33C142.494 478.959 137.996 488.781 129.537 495.742C121.47 502.381 110.116 506.038 97.5683 506.038H84.8645ZM142.567 452.3H129.87C127.572 452.3 125.316 452.423 123.107 452.655C132.318 447.951 139.309 440.457 142.567 430.538V452.3ZM84.8645 456.372V443.651C84.8645 431.896 89.3724 421.972 97.9003 414.954C105.968 408.314 117.322 404.658 129.87 404.658H142.56V417.378C142.56 417.426 142.561 417.473 142.563 417.52C142.564 417.545 142.565 417.57 142.566 417.595C142.566 417.613 142.567 417.631 142.567 417.65V417.664C142.494 429.294 137.996 439.115 129.537 446.076C121.47 452.716 110.116 456.372 97.5683 456.372H84.8645ZM142.567 402.634H129.87C127.572 402.634 125.316 402.758 123.106 402.99C132.317 398.285 139.309 390.791 142.567 380.872V402.634ZM84.8645 406.706V393.986C84.8645 382.23 89.3724 372.306 97.9003 365.288C105.968 358.648 117.322 354.992 129.87 354.992H142.56V367.713C142.56 367.76 142.561 367.807 142.563 367.854C142.565 367.897 142.566 367.94 142.567 367.984V367.998C142.494 379.628 137.996 389.449 129.537 396.41C121.47 403.05 110.116 406.706 97.5683 406.706H84.8645ZM142.567 352.968H129.87C127.572 352.968 125.316 353.092 123.107 353.324C132.318 348.62 139.309 341.125 142.567 331.206V352.968ZM84.8645 357.041V344.32C84.8645 332.564 89.3724 322.641 97.9003 315.622C105.968 308.983 117.322 305.326 129.87 305.326H142.56V318.047C142.56 318.068 142.56 318.088 142.561 318.109C142.561 318.123 142.561 318.138 142.562 318.153L142.563 318.188C142.565 318.231 142.566 318.275 142.567 318.319V318.333C142.494 329.963 137.996 339.784 129.537 346.745C121.47 353.384 110.116 357.041 97.5683 357.041H84.8645ZM142.567 303.303H129.87C127.572 303.303 125.316 303.426 123.107 303.658C132.318 298.954 139.309 291.46 142.567 281.541V303.303ZM84.8645 307.375V294.655C84.8645 282.899 89.3724 272.975 97.9003 265.957C105.968 259.317 117.322 255.661 129.87 255.661H142.56V268.381C142.56 268.429 142.561 268.476 142.563 268.523L142.563 268.524C142.564 268.549 142.565 268.574 142.566 268.599C142.566 268.617 142.567 268.635 142.567 268.653V268.667C142.494 280.297 137.996 290.118 129.537 297.079C121.47 303.719 110.116 307.375 97.5683 307.375H84.8645ZM142.567 253.637H129.87C127.572 253.637 125.316 253.761 123.106 253.993C132.317 249.288 139.309 241.794 142.567 231.875V253.637ZM97.9003 216.291C105.968 209.652 117.322 205.995 129.87 205.995H142.56V218.716C142.56 218.807 142.566 218.896 142.567 218.987V219.001C142.494 230.631 137.996 240.452 129.537 247.413C121.47 254.053 110.116 257.71 97.5683 257.71H84.8645V244.989C84.8645 233.233 89.3724 223.31 97.9003 216.291ZM144.587 253.637V231.875C147.845 241.794 154.837 249.288 164.048 253.993C161.838 253.761 159.582 253.637 157.284 253.637H144.587ZM144.587 303.303V281.541C147.845 291.46 154.836 298.954 164.047 303.658C161.838 303.426 159.582 303.303 157.284 303.303H144.587ZM144.587 352.968V331.206C147.845 341.125 154.836 348.62 164.047 353.324C161.838 353.092 159.582 352.968 157.284 352.968H144.587ZM144.587 402.634V380.872C147.845 390.791 154.837 398.285 164.048 402.99C161.838 402.758 159.582 402.634 157.284 402.634H144.587ZM202.289 443.651V456.372H189.586C177.038 456.372 165.684 452.716 157.617 446.076C149.158 439.115 144.66 429.294 144.587 417.664V417.65C144.588 417.606 144.589 417.563 144.591 417.52C144.593 417.473 144.594 417.426 144.594 417.378V404.658H157.284C169.832 404.658 181.186 408.314 189.254 414.954C197.782 421.972 202.289 431.896 202.289 443.651ZM144.587 452.3V430.538C147.845 440.457 154.836 447.951 164.047 452.655C161.838 452.423 159.582 452.3 157.285 452.3H144.587ZM157.285 454.323C169.832 454.323 181.186 457.98 189.254 464.619C197.782 471.638 202.289 481.561 202.289 493.317V506.038H189.586C177.038 506.038 165.684 502.381 157.617 495.742C149.158 488.781 144.66 478.959 144.587 467.33V467.315C144.588 467.272 144.589 467.229 144.591 467.186C144.593 467.139 144.594 467.092 144.594 467.044V454.323H157.285ZM443.202 309.308H455.905C468.453 309.308 479.807 312.964 487.874 319.604C496.332 326.564 500.829 336.383 500.903 348.011V348.04C500.903 348.082 500.901 348.124 500.9 348.165C500.898 348.21 500.897 348.256 500.897 348.302V361.022H488.207C475.659 361.022 464.305 357.366 456.237 350.726C447.709 343.708 443.201 333.784 443.201 322.028L443.202 309.308ZM441.181 307.361H428.477C415.929 307.361 404.576 303.705 396.508 297.065C388.05 290.104 383.552 280.283 383.479 268.653V268.639C383.479 268.548 383.486 268.459 383.486 268.367V255.647H396.176C408.724 255.647 420.077 259.303 428.145 265.943C436.673 272.961 441.181 282.885 441.181 294.641L441.181 307.361ZM455.905 307.284H443.202V294.641C443.202 278.065 434.641 265.966 421.714 259.363C423.923 259.596 426.18 259.719 428.477 259.719H441.181V272.363C441.181 288.938 449.741 301.037 462.668 307.64C460.459 307.408 458.203 307.284 455.905 307.284ZM443.202 259.642H455.905C468.453 259.642 479.807 263.299 487.874 269.938C496.332 276.898 500.829 286.717 500.903 298.345V298.374C500.903 298.416 500.901 298.458 500.9 298.499C500.898 298.545 500.897 298.59 500.897 298.636V311.357H488.207C475.659 311.357 464.305 307.7 456.237 301.061C447.709 294.042 443.201 284.118 443.201 272.363L443.202 259.642ZM441.181 257.696H428.477C415.929 257.696 404.576 254.039 396.508 247.4C388.05 240.439 383.552 230.617 383.479 218.988V218.973C383.479 218.882 383.486 218.794 383.486 218.702V205.981H396.176C408.724 205.981 420.077 209.638 428.145 216.277C436.673 223.296 441.181 233.219 441.181 244.975L441.181 257.696ZM455.905 257.618H443.202V244.975C443.202 228.4 434.641 216.3 421.714 209.698C423.923 209.93 426.18 210.054 428.477 210.054H441.181V222.697C441.181 239.272 449.741 251.371 462.668 257.974C460.459 257.742 458.203 257.618 455.905 257.618ZM443.202 209.976H455.905C468.453 209.976 479.807 213.633 487.874 220.272C496.332 227.232 500.829 237.052 500.903 248.679V248.708C500.903 248.751 500.901 248.792 500.9 248.834C500.898 248.879 500.897 248.924 500.897 248.97V261.691H488.207C475.659 261.691 464.305 258.034 456.237 251.395C447.709 244.376 443.201 234.453 443.201 222.697L443.202 209.976ZM441.181 208.03H428.477C415.929 208.03 404.576 204.374 396.508 197.734C388.05 190.773 383.552 180.952 383.479 169.322V169.308C383.479 169.216 383.486 169.128 383.486 169.036V156.315H396.176C408.724 156.315 420.077 159.972 428.145 166.612C436.673 173.63 441.181 183.554 441.181 195.309L441.181 208.03ZM455.905 207.953H443.202V195.309C443.202 178.734 434.642 166.635 421.714 160.032C423.923 160.264 426.18 160.388 428.477 160.388H441.181V173.031C441.181 189.607 449.741 201.706 462.668 208.309C460.459 208.076 458.203 207.953 455.905 207.953ZM443.202 160.311H455.905C468.453 160.311 479.807 163.967 487.874 170.607C496.332 177.567 500.829 187.386 500.903 199.014V199.043C500.903 199.085 500.901 199.127 500.9 199.168C500.898 199.213 500.897 199.259 500.897 199.305V212.025H488.207C475.659 212.025 464.305 208.369 456.237 201.729C447.709 194.711 443.201 184.787 443.201 173.031L443.202 160.311ZM441.181 158.365H428.477C415.929 158.365 404.576 154.708 396.508 148.068C388.05 141.107 383.552 131.286 383.479 119.656V119.642C383.479 119.598 383.481 119.555 383.482 119.512L383.484 119.473C383.484 119.45 383.485 119.427 383.486 119.404C383.486 119.393 383.486 119.382 383.486 119.371V106.65H396.176C408.724 106.65 420.077 110.306 428.145 116.946C436.673 123.965 441.181 133.888 441.181 145.644L441.181 158.365ZM455.905 158.287H443.202V145.644C443.202 129.068 434.641 116.969 421.714 110.367C423.923 110.599 426.18 110.722 428.477 110.722H441.181V123.366C441.181 139.941 449.741 152.04 462.668 158.643C460.459 158.411 458.203 158.287 455.905 158.287ZM443.202 110.645H455.905C468.453 110.645 479.807 114.302 487.874 120.941C496.332 127.901 500.829 137.72 500.903 149.348V149.377C500.903 149.419 500.901 149.461 500.9 149.502L500.898 149.551C500.897 149.58 500.897 149.609 500.897 149.639V162.36H488.207C475.659 162.36 464.305 158.703 456.237 152.064C447.709 145.045 443.201 135.122 443.201 123.366L443.202 110.645ZM428.477 108.699H441.181L441.181 95.9782C441.181 84.2224 436.673 74.2988 428.145 67.2803C420.077 60.6407 408.724 56.9842 396.176 56.9842H383.486V69.7048C383.486 69.7526 383.484 69.7994 383.482 69.8462C383.481 69.8894 383.479 69.9326 383.479 69.9764V69.9907C383.552 81.6205 388.05 91.4417 396.508 98.4027C404.576 105.042 415.929 108.699 428.477 108.699ZM323.756 357.027V344.306C323.756 332.551 328.264 322.627 336.792 315.608C344.86 308.969 356.213 305.312 368.761 305.312H381.451V318.033C381.451 318.083 381.453 318.131 381.455 318.18C381.456 318.221 381.458 318.263 381.458 318.305V318.319C381.385 329.949 376.887 339.77 368.429 346.731C360.361 353.37 349.008 357.027 336.46 357.027H323.756ZM381.458 303.289H368.761C366.464 303.289 364.207 303.412 361.998 303.645C371.209 298.94 378.2 291.446 381.458 281.527V303.289ZM323.756 307.361V294.641C323.756 282.885 328.264 272.961 336.792 265.943C344.859 259.303 356.213 255.647 368.761 255.647H381.451V268.367C381.451 268.414 381.453 268.459 381.454 268.505L381.455 268.507L381.455 268.52C381.456 268.559 381.458 268.599 381.458 268.639V268.653C381.385 280.283 376.887 290.104 368.429 297.065C360.361 303.705 349.008 307.361 336.46 307.361H323.756ZM381.458 253.623H368.761C366.464 253.623 364.207 253.747 361.998 253.979C371.209 249.275 378.2 241.78 381.458 231.861V253.623ZM323.756 257.696V244.975C323.756 233.219 328.264 223.296 336.792 216.277C344.859 209.638 356.213 205.981 368.761 205.981H381.451V218.702C381.451 218.755 381.453 218.808 381.455 218.86C381.457 218.898 381.458 218.935 381.458 218.973V218.988C381.385 230.617 376.887 240.439 368.429 247.4C360.361 254.039 349.008 257.696 336.46 257.696H323.756ZM381.458 203.958H368.761C366.464 203.958 364.207 204.081 361.998 204.313C371.209 199.609 378.2 192.115 381.458 182.196V203.958ZM323.756 208.03V195.309C323.756 183.554 328.264 173.63 336.792 166.612C344.859 159.972 356.213 156.315 368.761 156.315H381.451V169.036C381.451 169.084 381.453 169.13 381.455 169.177L381.456 169.202C381.456 169.221 381.457 169.24 381.457 169.259C381.458 169.275 381.458 169.291 381.458 169.308V169.322C381.385 180.952 376.887 190.773 368.429 197.734C360.361 204.374 349.008 208.03 336.46 208.03H323.756ZM381.458 154.292H368.761C366.464 154.292 364.207 154.415 361.998 154.648C371.209 149.943 378.2 142.449 381.458 132.53V154.292ZM323.756 158.365V145.644C323.756 133.888 328.264 123.965 336.792 116.946C344.859 110.306 356.213 106.65 368.761 106.65H381.451V119.371C381.451 119.462 381.458 119.551 381.458 119.642V119.656C381.385 131.286 376.887 141.107 368.429 148.068C360.361 154.708 349.008 158.365 336.46 158.365H323.756ZM381.458 104.626H368.761C366.464 104.626 364.207 104.75 361.998 104.982C371.209 100.278 378.2 92.7834 381.458 82.8643V104.626ZM336.792 67.2803C344.859 60.6407 356.213 56.9842 368.761 56.9842H381.451V69.7048C381.451 69.7966 381.458 69.885 381.458 69.9764V69.9907C381.385 81.6205 376.887 91.4417 368.429 98.4027C360.361 105.042 349.008 108.699 336.46 108.699H323.756V95.9782C323.756 84.2224 328.264 74.2988 336.792 67.2803ZM383.479 104.626V82.8643C386.737 92.7834 393.728 100.278 402.939 104.982C400.73 104.75 398.473 104.626 396.176 104.626H383.479ZM383.479 154.292V132.53C386.737 142.449 393.728 149.943 402.939 154.648C400.73 154.415 398.473 154.292 396.176 154.292H383.479ZM383.479 203.958V182.196C386.737 192.115 393.728 199.609 402.939 204.313C400.73 204.081 398.473 203.958 396.176 203.958H383.479ZM383.479 253.623V231.861C386.737 241.78 393.728 249.275 402.939 253.979C400.73 253.747 398.473 253.623 396.176 253.623H383.479ZM383.479 303.289V281.527C386.737 291.446 393.728 298.94 402.939 303.645C400.73 303.412 398.473 303.289 396.176 303.289H383.479ZM396.176 305.312C408.724 305.312 420.077 308.969 428.145 315.608C436.673 322.627 441.181 332.551 441.181 344.306V357.027H428.477C415.929 357.027 404.576 353.37 396.508 346.731C388.05 339.77 383.552 329.949 383.479 318.319V318.305C383.479 318.261 383.481 318.218 383.482 318.174L383.484 318.129C383.485 318.097 383.486 318.065 383.486 318.033V305.312H396.176ZM515.621 361.022C528.169 361.022 539.523 357.366 547.59 350.726C556.119 343.708 560.626 333.784 560.626 322.028V309.308H547.922C535.375 309.308 524.021 312.964 515.953 319.604C507.493 326.567 502.995 336.391 502.924 348.026C502.924 348.054 502.925 348.081 502.926 348.109L502.928 348.158C502.929 348.206 502.931 348.253 502.931 348.302V361.022H515.621ZM500.903 335.142V313.38H488.207C485.909 313.38 483.653 313.257 481.443 313.024C490.654 317.729 497.645 325.223 500.903 335.142ZM500.903 285.476V263.714H488.207C485.909 263.714 483.653 263.591 481.443 263.359C490.654 268.063 497.645 275.557 500.903 285.476ZM500.903 235.81V214.049H488.207C485.909 214.049 483.653 213.925 481.443 213.693C490.654 218.398 497.645 225.892 500.903 235.81ZM500.903 186.145V164.383H488.207C485.909 164.383 483.652 164.26 481.443 164.027C490.654 168.732 497.645 176.226 500.903 186.145ZM500.903 136.479V114.718H488.206C485.909 114.718 483.653 114.594 481.443 114.362C490.654 119.066 497.645 126.56 500.903 136.479ZM443.201 60.9794V73.7C443.201 85.4558 447.709 95.3794 456.237 102.398C464.305 109.037 475.658 112.694 488.206 112.694H500.896V99.9735C500.896 99.8794 500.903 99.7887 500.904 99.6949C500.832 88.0619 496.334 78.238 487.874 71.2756C479.807 64.6361 468.453 60.9794 455.905 60.9794H443.201ZM513.113 71.0417C520.167 63.9393 524.402 52.8267 524.402 40.9075C524.402 27.2295 518.825 14.6136 509.811 7.90118L501.914 2.02039L494.016 7.90118C485.002 14.6136 479.425 27.2295 479.425 40.9078C479.425 52.876 483.695 64.0312 490.802 71.1297C490.81 71.1376 490.815 71.1469 490.82 71.1561C490.824 71.1644 490.829 71.1727 490.835 71.1801C496.277 76.2027 500.175 82.6921 501.914 90.4918C503.661 82.6516 507.589 76.1335 513.075 71.1C513.091 71.082 513.096 71.059 513.113 71.0417ZM560.626 73.7V60.9794H547.922C535.375 60.9794 524.021 64.6361 515.953 71.2756C507.493 78.238 502.995 88.0619 502.924 99.6949C502.924 99.7399 502.926 99.7842 502.928 99.8285C502.929 99.8765 502.931 99.9245 502.931 99.9735V112.694H515.621C528.169 112.694 539.523 109.037 547.59 102.398C556.118 95.3794 560.626 85.4558 560.626 73.7ZM515.621 114.718H502.924V136.48C506.182 126.561 513.173 119.066 522.384 114.362C520.175 114.594 517.919 114.718 515.621 114.718ZM560.626 123.366V110.645H547.922C535.375 110.645 524.021 114.302 515.953 120.941C507.493 127.904 502.995 137.729 502.924 149.363C502.924 149.407 502.926 149.451 502.928 149.495C502.929 149.543 502.931 149.59 502.931 149.639V162.36H515.621C528.169 162.36 539.523 158.703 547.59 152.064C556.119 145.045 560.626 135.122 560.626 123.366ZM515.621 164.383H502.924V186.146C506.182 176.226 513.173 168.732 522.385 164.027C520.175 164.26 517.919 164.383 515.621 164.383ZM560.626 173.031V160.311H547.922C535.375 160.311 524.021 163.967 515.953 170.607C507.493 177.57 502.995 187.394 502.924 199.029C502.924 199.053 502.925 199.078 502.926 199.103C502.926 199.122 502.927 199.142 502.928 199.161C502.929 199.209 502.931 199.256 502.931 199.305V212.025H515.621C528.169 212.025 539.523 208.369 547.59 201.729C556.119 194.711 560.626 184.787 560.626 173.031ZM515.621 214.049H502.924V235.811C506.182 225.892 513.173 218.398 522.384 213.693C520.175 213.925 517.919 214.049 515.621 214.049ZM560.626 222.697V209.976H547.922C535.375 209.976 524.021 213.633 515.953 220.272C507.493 227.235 502.995 237.06 502.924 248.694C502.924 248.739 502.926 248.783 502.928 248.827C502.929 248.874 502.931 248.922 502.931 248.97V261.691H515.621C528.169 261.691 539.523 258.034 547.59 251.395C556.119 244.376 560.626 234.453 560.626 222.697ZM515.621 263.714H502.924V285.477C506.182 275.558 513.173 268.063 522.384 263.359C520.175 263.591 517.919 263.714 515.621 263.714ZM560.626 272.363V259.642H547.922C535.375 259.642 524.021 263.299 515.953 269.938C507.493 276.901 502.995 286.726 502.924 298.36C502.924 298.404 502.926 298.448 502.928 298.492C502.929 298.54 502.931 298.587 502.931 298.636V311.357H515.621C528.169 311.357 539.523 307.7 547.59 301.061C556.119 294.042 560.626 284.118 560.626 272.363ZM515.621 313.38H502.924V335.143C506.182 325.224 513.173 317.729 522.384 313.024C520.175 313.257 517.919 313.38 515.621 313.38ZM308.699 450.144C300.631 456.783 289.278 460.44 276.73 460.44H264.04V447.719C264.04 447.671 264.038 447.623 264.036 447.576C264.034 447.532 264.033 447.488 264.033 447.443C264.103 435.809 268.601 425.984 277.062 419.021C285.13 412.382 296.483 408.725 309.031 408.725H321.735V421.446C321.735 433.202 317.227 443.125 308.699 450.144ZM262.012 412.798V434.559C258.754 424.64 251.763 417.146 242.552 412.442C244.761 412.674 247.018 412.798 249.315 412.798H262.012ZM262.012 363.132V384.893C258.754 374.975 251.763 367.481 242.552 362.776C244.761 363.008 247.018 363.132 249.315 363.132H262.012ZM262.012 313.466V335.228C258.754 325.309 251.763 317.815 242.552 313.111C244.761 313.343 247.018 313.466 249.315 313.466H262.012ZM262.012 263.801V285.562C258.754 275.643 251.763 268.149 242.552 263.445C244.761 263.677 247.018 263.801 249.315 263.801H262.012ZM204.31 222.783V210.063H217.014C229.562 210.063 240.915 213.719 248.983 220.359C257.44 227.319 261.937 237.138 262.012 248.766V248.795C262.011 248.883 262.005 248.968 262.005 249.057V261.777H249.315C236.767 261.777 225.413 258.121 217.346 251.481C208.818 244.463 204.31 234.539 204.31 222.783ZM262.012 214.135V235.897C258.754 225.978 251.763 218.484 242.552 213.78C244.761 214.012 247.018 214.135 249.315 214.135H262.012ZM204.31 173.118V160.397H217.014C229.561 160.397 240.915 164.054 248.983 170.693C257.443 177.656 261.941 187.48 262.012 199.112C262.012 199.206 262.005 199.297 262.005 199.391V212.112H249.315C236.767 212.112 225.413 208.455 217.346 201.815C208.818 194.797 204.31 184.873 204.31 173.118ZM285.511 140.325C285.511 152.244 281.276 163.357 274.222 170.459C274.205 170.477 274.199 170.5 274.184 170.518C268.697 175.551 264.77 182.069 263.022 189.909C261.284 182.11 257.386 175.62 251.944 170.598C251.937 170.59 251.933 170.582 251.928 170.574C251.923 170.564 251.918 170.555 251.91 170.547C244.804 163.449 240.534 152.294 240.534 140.325C240.534 126.647 246.111 114.031 255.125 107.319L263.022 101.438L270.919 107.319C279.934 114.031 285.511 126.647 285.511 140.325ZM321.735 160.397V173.118C321.735 184.873 317.227 194.797 308.699 201.815C300.631 208.455 289.278 212.112 276.729 212.112H264.04V199.391C264.04 199.342 264.038 199.294 264.036 199.246C264.034 199.202 264.033 199.158 264.033 199.112C264.104 187.48 268.602 177.656 277.062 170.693C285.129 164.054 296.483 160.397 309.031 160.397H321.735ZM264.033 214.135H276.729C279.027 214.135 281.283 214.012 283.493 213.78C274.282 218.484 267.29 225.978 264.033 235.898V214.135ZM321.735 210.063V222.783C321.735 234.539 317.227 244.463 308.699 251.481C300.631 258.121 289.278 261.777 276.73 261.777H264.04V249.057C264.04 248.963 264.033 248.873 264.033 248.78C264.103 237.146 268.601 227.322 277.062 220.359C285.13 213.719 296.483 210.063 309.031 210.063H321.735ZM264.033 263.801H276.73C279.027 263.801 281.284 263.677 283.493 263.445C274.282 268.15 267.29 275.644 264.033 285.563V263.801ZM321.735 259.728V272.449C321.735 284.205 317.227 294.128 308.699 301.147C300.631 307.786 289.278 311.443 276.73 311.443H264.04V298.722C264.04 298.629 264.033 298.539 264.033 298.446C264.103 286.812 268.601 276.987 277.062 270.025C285.13 263.385 296.483 259.728 309.031 259.728H321.735ZM264.033 313.466H276.73C279.027 313.466 281.283 313.343 283.493 313.111C274.282 317.815 267.29 325.31 264.033 335.229V313.466ZM321.735 309.394V322.115C321.735 333.87 317.227 343.794 308.699 350.812C300.631 357.452 289.278 361.109 276.73 361.109H264.04V348.388C264.04 348.34 264.038 348.293 264.036 348.246C264.035 348.201 264.033 348.157 264.033 348.112C264.103 336.478 268.601 326.653 277.062 319.69C285.13 313.051 296.483 309.394 309.031 309.394H321.735ZM264.033 363.132H276.73C279.027 363.132 281.284 363.008 283.493 362.776C274.282 367.481 267.29 374.975 264.033 384.895V363.132ZM321.735 359.06V371.78C321.735 383.536 317.227 393.46 308.699 400.478C300.631 407.118 289.278 410.774 276.73 410.774H264.04V398.053C264.04 398.005 264.038 397.957 264.036 397.91C264.034 397.866 264.033 397.822 264.033 397.777C264.103 386.143 268.601 376.319 277.062 369.356C285.13 362.716 296.483 359.06 309.031 359.06H321.735ZM264.033 412.798H276.73C279.027 412.798 281.284 412.674 283.493 412.442C274.282 417.147 267.29 424.641 264.033 434.56V412.798Z" fill="#060606" fill-opacity="0.1"/>
</g>
<defs>
<linearGradient id="paint0_linear_3671_4708" x1="308.363" y1="0" x2="308.363" y2="596.015" gradientUnits="userSpaceOnUse">
<stop stop-color="#D9D9D9"/>
<stop offset="0.758502" stop-color="#737373" stop-opacity="0"/>
</linearGradient>
</defs>
</svg>
