<svg width="56" height="56" viewBox="0 0 56 56" fill="none" xmlns="http://www.w3.org/2000/svg">
<g id="Money">
<g id="Group 21">
<path id="Vector" d="M28.5 35C32.366 35 35.5 31.866 35.5 28C35.5 24.134 32.366 21 28.5 21C24.634 21 21.5 24.134 21.5 28C21.5 31.866 24.634 35 28.5 35Z" stroke="#9E2B47" stroke-width="1.5" stroke-miterlimit="10" stroke-linecap="square"/>
<path id="Vector_2" d="M53 14H4V42H53V14Z" stroke="#9E2B47" stroke-width="1.5" stroke-miterlimit="10" stroke-linecap="square"/>
<path id="Vector_3" d="M53 22.75C50.814 22.3795 48.7974 21.3382 47.2296 19.7704C45.6618 18.2026 44.6205 16.186 44.25 14" stroke="#9E2B47" stroke-width="1.5" stroke-miterlimit="10" stroke-linecap="square"/>
<path id="Vector_4" d="M44.25 42C44.6205 39.814 45.6618 37.7974 47.2296 36.2296C48.7974 34.6618 50.814 33.6205 53 33.25" stroke="#9E2B47" stroke-width="1.5" stroke-miterlimit="10" stroke-linecap="square"/>
<path id="Vector_5" d="M4 33.25C6.186 33.6205 8.20263 34.6618 9.77042 36.2296C11.3382 37.7974 12.3795 39.814 12.75 42" stroke="#9E2B47" stroke-width="1.5" stroke-miterlimit="10" stroke-linecap="square"/>
<path id="Vector_6" d="M12.75 14C12.3795 16.186 11.3382 18.2026 9.77042 19.7704C8.20263 21.3382 6.186 22.3795 4 22.75" stroke="#9E2B47" stroke-width="1.5" stroke-miterlimit="10" stroke-linecap="square"/>
</g>
</g>
</svg>
