<svg width="40" height="40" viewBox="0 0 40 40" fill="none" xmlns="http://www.w3.org/2000/svg">
<g id="Scroll">
<path id="Vector" d="M31.25 27.5V10C31.25 9.00544 30.8549 8.05161 30.1517 7.34835C29.4484 6.64509 28.4946 6.25 27.5 6.25H6.25" stroke="#9E2B47" stroke-width="1.5" stroke-miterlimit="10" stroke-linecap="square"/>
<path id="Vector_2" d="M16.25 16.25H26.25" stroke="#9E2B47" stroke-width="1.5" stroke-miterlimit="10" stroke-linecap="square"/>
<path id="Vector_3" d="M16.25 21.25H26.25" stroke="#9E2B47" stroke-width="1.5" stroke-miterlimit="10" stroke-linecap="square"/>
<path id="Vector_4" d="M3.75 12.5C3.75 12.5 2.5 11.5625 2.5 10C2.5 9.00544 2.89509 8.05161 3.59835 7.34835C4.30161 6.64509 5.25544 6.25 6.25 6.25C7.24456 6.25 8.19839 6.64509 8.90165 7.34835C9.60491 8.05161 10 9.00544 10 10V30C10 30.9946 10.3951 31.9484 11.0983 32.6517C11.8016 33.3549 12.7554 33.75 13.75 33.75M13.75 33.75C14.7446 33.75 15.6984 33.3549 16.4017 32.6517C17.1049 31.9484 17.5 30.9946 17.5 30C17.5 28.4375 16.25 27.5 16.25 27.5H33.75C33.75 27.5 35 28.4375 35 30C35 30.9946 34.6049 31.9484 33.9017 32.6517C33.1984 33.3549 32.2446 33.75 31.25 33.75H13.75Z" stroke="#9E2B47" stroke-width="1.5" stroke-miterlimit="10" stroke-linecap="square"/>
</g>
</svg>
