<svg width="56" height="56" viewBox="0 0 56 56" fill="none" xmlns="http://www.w3.org/2000/svg">
<g id="Scroll">
<path id="Vector" d="M43.75 38.5V14C43.75 12.6076 43.1969 11.2723 42.2123 10.2877C41.2277 9.30312 39.8924 8.75 38.5 8.75H8.75" stroke="#9E2B47" stroke-width="1.5" stroke-miterlimit="10" stroke-linecap="square"/>
<path id="Vector_2" d="M22.75 22.75H36.75" stroke="#9E2B47" stroke-width="1.5" stroke-miterlimit="10" stroke-linecap="square"/>
<path id="Vector_3" d="M22.75 29.75H36.75" stroke="#9E2B47" stroke-width="1.5" stroke-miterlimit="10" stroke-linecap="square"/>
<path id="Vector_4" d="M5.25 17.5C5.25 17.5 3.5 16.1875 3.5 14C3.5 12.6076 4.05312 11.2723 5.03769 10.2877C6.02226 9.30312 7.35761 8.75 8.75 8.75C10.1424 8.75 11.4777 9.30312 12.4623 10.2877C13.4469 11.2723 14 12.6076 14 14V42C14 43.3924 14.5531 44.7277 15.5377 45.7123C16.5223 46.6969 17.8576 47.25 19.25 47.25M19.25 47.25C20.6424 47.25 21.9777 46.6969 22.9623 45.7123C23.9469 44.7277 24.5 43.3924 24.5 42C24.5 39.8125 22.75 38.5 22.75 38.5H47.25C47.25 38.5 49 39.8125 49 42C49 43.3924 48.4469 44.7277 47.4623 45.7123C46.4777 46.6969 45.1424 47.25 43.75 47.25H19.25Z" stroke="#9E2B47" stroke-width="1.5" stroke-miterlimit="10" stroke-linecap="square"/>
</g>
</svg>
