<svg width="20" height="20" viewBox="0 0 20 20" fill="none" xmlns="http://www.w3.org/2000/svg">
<g id="IconSimple / Transaction">
<path id="icon" d="M16.489 14.0651L14.0649 16.4892C13.9512 16.6029 13.797 16.6668 13.6361 16.6668C13.4753 16.6668 13.3211 16.6029 13.2074 16.4892C13.0937 16.3755 13.0298 16.2213 13.0298 16.0605C13.0298 15.8996 13.0937 15.7454 13.2074 15.6317L14.5974 14.2424H3.93987C3.77914 14.2424 3.625 14.1785 3.51135 14.0649C3.3977 13.9512 3.33385 13.7971 3.33385 13.6363C3.33385 13.4756 3.3977 13.3215 3.51135 13.2078C3.625 13.0942 3.77914 13.0303 3.93987 13.0303H14.5974L13.2074 11.641C13.0937 11.5273 13.0298 11.373 13.0298 11.2122C13.0298 11.0514 13.0937 10.8972 13.2074 10.7835C13.3211 10.6697 13.4753 10.6059 13.6361 10.6059C13.797 10.6059 13.9512 10.6697 14.0649 10.7835L16.489 13.2076C16.5453 13.2639 16.59 13.3307 16.6205 13.4043C16.651 13.4778 16.6667 13.5567 16.6667 13.6363C16.6667 13.716 16.651 13.7948 16.6205 13.8684C16.59 13.942 16.5453 14.0088 16.489 14.0651ZM5.93518 9.21687C6.04889 9.33058 6.20312 9.39447 6.36394 9.39447C6.52475 9.39447 6.67898 9.33058 6.79269 9.21687C6.90641 9.10315 6.97029 8.94892 6.97029 8.7881C6.97029 8.62728 6.90641 8.47305 6.79269 8.35934L5.40264 6.97001H16.0602C16.2209 6.97001 16.3751 6.90616 16.4887 6.79251C16.6024 6.67886 16.6662 6.52471 16.6662 6.36398C16.6662 6.20325 16.6024 6.04911 16.4887 5.93545C16.3751 5.8218 16.2209 5.75795 16.0602 5.75795H5.40264L6.79269 4.36863C6.90641 4.25491 6.97029 4.10068 6.97029 3.93986C6.97029 3.77904 6.90641 3.62481 6.79269 3.5111C6.67898 3.39738 6.52475 3.3335 6.36394 3.3335C6.20312 3.3335 6.04889 3.39738 5.93518 3.5111L3.51111 5.93522C3.45477 5.9915 3.41007 6.05834 3.37957 6.13191C3.34907 6.20548 3.33337 6.28434 3.33337 6.36398C3.33337 6.44362 3.34907 6.52249 3.37957 6.59606C3.41007 6.66963 3.45477 6.73647 3.51111 6.79275L5.93518 9.21687Z" fill="#54433B"/>
</g>
</svg>
