<svg width="40" height="40" viewBox="0 0 40 40" fill="none" xmlns="http://www.w3.org/2000/svg">
<g id="ClockCounterClockwise">
<path id="Vector" d="M21 12.5V20L27.25 23.75" stroke="#C33C5E" stroke-width="1.35" stroke-linecap="square" stroke-linejoin="round"/>
<path id="Vector_2" d="M11.25 17.25H5V11" stroke="#C33C5E" stroke-width="1.35" stroke-linecap="square"/>
<path id="Vector_3" d="M11.5625 29.9996C13.5281 31.8544 15.9966 33.0887 18.6597 33.5486C21.3228 34.0084 24.0624 33.6732 26.5361 32.5849C29.0098 31.4967 31.108 29.7036 32.5684 27.4297C34.0289 25.1558 34.7869 22.5019 34.7477 19.7997C34.7085 17.0975 33.8739 14.4667 32.3482 12.2361C30.8224 10.0055 28.6731 8.27401 26.1689 7.25791C23.6647 6.24182 20.9166 5.98621 18.2679 6.52302C15.6193 7.05983 13.1875 8.36525 11.2766 10.2762C9.4375 12.1387 7.91875 13.8949 6 16.2496" stroke="#C33C5E" stroke-width="1.35" stroke-linecap="square" stroke-linejoin="round"/>
</g>
</svg>
