<svg width="40" height="40" viewBox="0 0 40 40" fill="none" xmlns="http://www.w3.org/2000/svg">
<g id="Frame">
<g id="Group">
<path id="Vector" d="M20.0004 14.3513C22.7733 14.3513 25.0212 12.1034 25.0212 9.33043C25.0212 6.55749 22.7733 4.30957 20.0004 4.30957C17.2274 4.30957 14.9795 6.55749 14.9795 9.33043C14.9795 12.1034 17.2274 14.3513 20.0004 14.3513Z" stroke="#C33C5E" stroke-width="1.35" stroke-miterlimit="10" stroke-linecap="round" stroke-linejoin="round"/>
<path id="Vector_2" d="M6.82066 15.2927C8.81372 15.2927 10.4294 13.677 10.4294 11.6839C10.4294 9.69089 8.81372 8.0752 6.82066 8.0752C4.82761 8.0752 3.21191 9.69089 3.21191 11.6839C3.21191 13.677 4.82761 15.2927 6.82066 15.2927Z" stroke="#C33C5E" stroke-width="1.35" stroke-miterlimit="10" stroke-linecap="round" stroke-linejoin="round"/>
<path id="Vector_3" d="M33.18 15.2927C35.1731 15.2927 36.7888 13.677 36.7888 11.6839C36.7888 9.69089 35.1731 8.0752 33.18 8.0752C31.187 8.0752 29.5713 9.69089 29.5713 11.6839C29.5713 13.677 31.187 15.2927 33.18 15.2927Z" stroke="#C33C5E" stroke-width="1.35" stroke-miterlimit="10" stroke-linecap="round" stroke-linejoin="round"/>
<path id="Vector_4" d="M27.5312 18.1172L20 14.3516L12.4688 18.1172M27.5312 18.1172V35.6901H12.4688V18.1172M27.5312 18.1172L33.1797 15.293L38.8281 18.1172V31.2969H27.5312V18.1172ZM12.4688 18.1172L6.82031 15.293L1.17188 18.1172V31.2969H12.4688V18.1172Z" stroke="#C33C5E" stroke-width="1.35" stroke-miterlimit="10" stroke-linecap="round" stroke-linejoin="round"/>
<path id="Vector_5" d="M20.0006 30.6693L19.5233 31.1466L20.0006 31.6239L20.4779 31.1466L20.0006 30.6693ZM17.4902 28.1588L16.8272 28.0323L16.7602 28.3834L17.0129 28.6361L17.4902 28.1588ZM20.0006 15L20.6637 14.8735C20.6029 14.5552 20.3246 14.325 20.0006 14.325C19.6766 14.325 19.3983 14.5552 19.3376 14.8735L20.0006 15ZM22.511 28.1588L22.9883 28.6361L23.241 28.3834L23.1741 28.0323L22.511 28.1588ZM20.4779 30.192L17.9675 27.6815L17.0129 28.6361L19.5233 31.1466L20.4779 30.192ZM18.1533 28.2853L20.6637 15.1265L19.3376 14.8735L16.8272 28.0323L18.1533 28.2853ZM19.3376 15.1265L21.848 28.2853L23.1741 28.0323L20.6637 14.8735L19.3376 15.1265ZM22.0337 27.6815L19.5233 30.192L20.4779 31.1466L22.9883 28.6361L22.0337 27.6815Z" fill="#C33C5E"/>
</g>
</g>
</svg>
