<svg width="40" height="40" viewBox="0 0 40 40" fill="none" xmlns="http://www.w3.org/2000/svg">
<g id="Handshake">
<path id="Vector" d="M31.25 23.75L25 30L15 27.5L6.25 21.25" stroke="#C33C5E" stroke-width="1.35" stroke-linecap="square"/>
<path id="Vector_2" d="M11.3564 11.0359L20.0002 8.75L28.6439 11.0359" stroke="#C33C5E" stroke-width="1.35" stroke-linecap="square"/>
<path id="Vector_3" d="M5.37049 9.44045L1.38299 17.4186C1.2348 17.7149 1.21031 18.0579 1.3149 18.3723C1.4195 18.6867 1.64462 18.9467 1.9408 19.0951L6.25018 21.2498L11.3564 11.0358L7.04861 8.88264C6.90181 8.80902 6.74194 8.76504 6.57814 8.75324C6.41433 8.74143 6.24981 8.76201 6.09397 8.81382C5.93812 8.86562 5.79401 8.94762 5.66988 9.05514C5.54574 9.16267 5.444 9.29359 5.37049 9.44045Z" stroke="#C33C5E" stroke-width="1.35" stroke-linecap="square"/>
<path id="Vector_4" d="M33.7498 21.2498L38.0592 19.0951C38.3554 18.9467 38.5805 18.6867 38.6851 18.3723C38.7897 18.0579 38.7652 17.7149 38.617 17.4186L34.6295 9.44045C34.556 9.29359 34.4542 9.16267 34.3301 9.05514C34.206 8.94762 34.0619 8.86562 33.906 8.81382C33.7502 8.76201 33.5856 8.74143 33.4218 8.75324C33.258 8.76504 33.0982 8.80902 32.9514 8.88264L28.6436 11.0358L33.7498 21.2498Z" stroke="#C33C5E" stroke-width="1.35" stroke-linecap="square"/>
<path id="Vector_5" d="M28.7497 11.25H22.4997L15.3654 18.1703C15.2327 18.3029 15.1316 18.4636 15.0695 18.6405C15.0074 18.8174 14.986 19.0061 15.0067 19.1925C15.0274 19.3788 15.0897 19.5582 15.1892 19.7171C15.2886 19.8761 15.4225 20.0107 15.581 20.1109C18.3169 21.8594 22.031 21.7391 24.9997 18.75L31.2497 23.75L33.7497 21.25" stroke="#C33C5E" stroke-width="1.35" stroke-linecap="square"/>
<path id="Vector_6" d="M19.3844 33.75L12.8656 32.1203L8.75 29.1797" stroke="#C33C5E" stroke-width="1.35" stroke-linecap="square"/>
</g>
</svg>
