<svg width="14" height="14" viewBox="0 0 14 14" fill="none" xmlns="http://www.w3.org/2000/svg">
<g id="ph:caret-down-bold">
<path id="Vector" d="M4.78434 3.08957L4.74899 3.12492C4.61633 2.99226 4.5418 2.81233 4.5418 2.62472C4.5418 2.43711 4.61632 2.25718 4.74899 2.12452C4.88165 1.99186 5.06157 1.91733 5.24919 1.91733C5.4368 1.91733 5.61672 1.99186 5.74938 2.12452L5.75512 2.13026L5.75567 2.13135L10.1249 6.50055L4.78434 3.08957ZM4.78434 3.08957L4.74899 3.12492L8.62488 7.00027M4.78434 3.08957L8.62488 7.00027M8.62488 7.00027L4.74953 10.8756C4.61687 11.0083 4.54234 11.1882 4.54234 11.3758C4.54234 11.5634 4.61687 11.7434 4.74953 11.876C4.88219 12.0087 5.06212 12.0832 5.24973 12.0832C5.43734 12.0832 5.61727 12.0087 5.74993 11.876L10.1249 7.50108L8.62488 7.00027ZM10.2786 6.72998C10.243 6.64416 10.1907 6.56622 10.1249 6.50061L10.1249 7.50101C10.1907 7.43541 10.243 7.35747 10.2786 7.27165C10.3142 7.18581 10.3326 7.09377 10.3326 7.00081C10.3326 6.90786 10.3142 6.81582 10.2786 6.72998Z" fill="white" stroke="white" stroke-width="0.1"/>
</g>
</svg>
