<svg width="22" height="22" viewBox="0 0 22 22" fill="none" xmlns="http://www.w3.org/2000/svg">
<g id="Frame">
<g id="Group">
<path id="Layer 2" d="M17.3992 2.19922H4.59922C3.9627 2.19922 3.35225 2.45208 2.90216 2.90216C2.45208 3.35225 2.19922 3.9627 2.19922 4.59922L2.19922 17.3992C2.19922 18.0357 2.45208 18.6462 2.90216 19.0963C3.35225 19.5464 3.9627 19.7992 4.59922 19.7992H17.3992C18.0357 19.7992 18.6462 19.5464 19.0963 19.0963C19.5464 18.6462 19.7992 18.0357 19.7992 17.3992V4.59922C19.7992 3.9627 19.5464 3.35225 19.0963 2.90216C18.6462 2.45208 18.0357 2.19922 17.3992 2.19922ZM8.19922 16.1272C8.19935 16.176 8.18985 16.2244 8.17127 16.2695C8.15268 16.3146 8.12537 16.3556 8.09091 16.3902C8.05645 16.4248 8.0155 16.4522 7.97043 16.4709C7.92535 16.4896 7.87702 16.4992 7.82822 16.4992H6.24722C6.19833 16.4993 6.1499 16.4898 6.1047 16.4712C6.05951 16.4525 6.01845 16.4251 5.98388 16.3906C5.94931 16.356 5.92191 16.3149 5.90327 16.2697C5.88462 16.2245 5.87509 16.1761 5.87522 16.1272V9.49922C5.87522 9.40056 5.91441 9.30594 5.98417 9.23617C6.05394 9.16641 6.14856 9.12722 6.24722 9.12722H7.82822C7.92671 9.12748 8.02107 9.16679 8.09062 9.23653C8.16016 9.30626 8.19922 9.40073 8.19922 9.49922V16.1272ZM7.03722 8.49922C6.74055 8.49922 6.45054 8.41124 6.20386 8.24642C5.95719 8.0816 5.76493 7.84733 5.6514 7.57324C5.53787 7.29915 5.50816 6.99755 5.56604 6.70658C5.62392 6.41561 5.76678 6.14834 5.97656 5.93856C6.18634 5.72878 6.45361 5.58592 6.74458 5.52804C7.03555 5.47016 7.33715 5.49987 7.61124 5.6134C7.88533 5.72693 8.1196 5.91919 8.28442 6.16586C8.44924 6.41254 8.53722 6.70255 8.53722 6.99922C8.53722 7.39704 8.37918 7.77857 8.09788 8.05988C7.81657 8.34118 7.43504 8.49922 7.03722 8.49922ZM16.4632 16.1532C16.4634 16.1982 16.4546 16.2427 16.4375 16.2843C16.4203 16.3258 16.3951 16.3636 16.3633 16.3953C16.3316 16.4271 16.2938 16.4523 16.2523 16.4695C16.2107 16.4866 16.1662 16.4954 16.1212 16.4952H14.4212C14.3763 16.4954 14.3317 16.4866 14.2902 16.4695C14.2486 16.4523 14.2109 16.4271 14.1791 16.3953C14.1473 16.3636 14.1221 16.3258 14.105 16.2843C14.0878 16.2427 14.0791 16.1982 14.0792 16.1532V13.0482C14.0792 12.5842 14.2152 11.0162 12.8662 11.0162C11.8212 11.0162 11.6082 12.0892 11.5662 12.5712V16.1572C11.5662 16.2471 11.5309 16.3333 11.4678 16.3973C11.4048 16.4613 11.3191 16.4979 11.2292 16.4992H9.58722C9.54235 16.4992 9.49793 16.4904 9.45649 16.4732C9.41505 16.456 9.37742 16.4308 9.34574 16.399C9.31406 16.3672 9.28897 16.3295 9.27189 16.288C9.25481 16.2465 9.24609 16.2021 9.24622 16.1572V9.47022C9.24609 9.42535 9.25481 9.3809 9.27189 9.33942C9.28897 9.29793 9.31406 9.26022 9.34574 9.22845C9.37742 9.19668 9.41505 9.17147 9.45649 9.15427C9.49793 9.13707 9.54235 9.12822 9.58722 9.12822H11.2292C11.3199 9.12822 11.4069 9.16425 11.471 9.22839C11.5352 9.29253 11.5712 9.37951 11.5712 9.47022V10.0482C11.9592 9.46522 12.5342 9.01722 13.7612 9.01722C16.4792 9.01722 16.4612 11.5552 16.4612 12.9492L16.4632 16.1532Z" fill="#AF0B35"/>
</g>
</g>
</svg>
