<svg width="22" height="22" viewBox="0 0 22 22" fill="none" xmlns="http://www.w3.org/2000/svg">
<g id="Frame">
<path id="Vector" d="M21.3016 5.56041C21.0639 4.67682 20.3672 3.98031 19.4838 3.74238C17.8698 3.30078 11.4138 3.30078 11.4138 3.30078C11.4138 3.30078 4.95805 3.30078 3.34408 3.72566C2.4776 3.96333 1.76398 4.67698 1.52631 5.56041C1.10156 7.17425 1.10156 10.5212 1.10156 10.5212C1.10156 10.5212 1.10156 13.885 1.52631 15.4819C1.7642 16.3654 2.46062 17.0619 3.34421 17.2998C4.97503 17.7416 11.4141 17.7416 11.4141 17.7416C11.4141 17.7416 17.8698 17.7416 19.4838 17.3167C20.3674 17.0789 21.0639 16.3824 21.3018 15.4989C21.7264 13.8849 21.7264 10.5382 21.7264 10.5382C21.7264 10.5382 21.7434 7.17422 21.3016 5.56041ZM9.35833 13.6132V7.42913L14.7268 10.5211L9.35833 13.6132Z" fill="#AF0B35"/>
</g>
</svg>
