<svg width="21" height="21" viewBox="0 0 21 21" fill="none" xmlns="http://www.w3.org/2000/svg">
<path d="M17.5263 14.9019L14.9013 17.5269C14.7782 17.6501 14.6112 17.7192 14.437 17.7192C14.2629 17.7192 14.0959 17.6501 13.9727 17.5269C13.8496 17.4038 13.7804 17.2368 13.7804 17.0626C13.7804 16.8885 13.8496 16.7215 13.9727 16.5983L15.478 15.0939H3.93704C3.76299 15.0939 3.59607 15.0247 3.473 14.9017C3.34993 14.7786 3.28079 14.6117 3.28079 14.4376C3.28079 14.2636 3.34993 14.0967 3.473 13.9736C3.59607 13.8505 3.76299 13.7814 3.93704 13.7814H15.478L13.9727 12.2769C13.8496 12.1538 13.7804 11.9868 13.7804 11.8126C13.7804 11.6385 13.8496 11.4715 13.9727 11.3483C14.0959 11.2252 14.2629 11.156 14.437 11.156C14.6112 11.156 14.7782 11.2252 14.9013 11.3483L17.5263 13.9733C17.5874 14.0343 17.6358 14.1066 17.6688 14.1863C17.7018 14.266 17.7188 14.3514 17.7188 14.4376C17.7188 14.5239 17.7018 14.6093 17.6688 14.6889C17.6358 14.7686 17.5874 14.841 17.5263 14.9019ZM6.09774 9.65192C6.22088 9.77506 6.38789 9.84424 6.56204 9.84424C6.73618 9.84424 6.9032 9.77506 7.02634 9.65192C7.14948 9.52878 7.21865 9.36177 7.21865 9.18762C7.21865 9.01348 7.14948 8.84646 7.02634 8.72332L5.52106 7.21887H17.062C17.2361 7.21887 17.403 7.14973 17.5261 7.02666C17.6491 6.90359 17.7183 6.73667 17.7183 6.56262C17.7183 6.38857 17.6491 6.22165 17.5261 6.09858C17.403 5.97551 17.2361 5.90637 17.062 5.90637H5.52106L7.02634 4.40192C7.14948 4.27878 7.21865 4.11177 7.21865 3.93762C7.21865 3.76348 7.14948 3.59646 7.02634 3.47332C6.9032 3.35018 6.73618 3.28101 6.56204 3.28101C6.38789 3.28101 6.22088 3.35018 6.09774 3.47332L3.47274 6.09832C3.41173 6.15927 3.36332 6.23165 3.3303 6.31132C3.29727 6.39098 3.28027 6.47638 3.28027 6.56262C3.28027 6.64886 3.29727 6.73426 3.3303 6.81393C3.36332 6.89359 3.41173 6.96597 3.47274 7.02692L6.09774 9.65192Z" fill="#343330"/>
</svg>
