<svg width="36" height="36" viewBox="0 0 36 36" fill="none" xmlns="http://www.w3.org/2000/svg">
<circle cx="18" cy="18" r="17.5" stroke="black" stroke-opacity="0.1"/>
<path d="M25.5263 22.9019L22.9013 25.5269C22.7782 25.6501 22.6112 25.7192 22.437 25.7192C22.2629 25.7192 22.0959 25.6501 21.9727 25.5269C21.8496 25.4038 21.7804 25.2368 21.7804 25.0626C21.7804 24.8885 21.8496 24.7215 21.9727 24.5983L23.478 23.0939H11.937C11.763 23.0939 11.5961 23.0247 11.473 22.9017C11.3499 22.7786 11.2808 22.6117 11.2808 22.4376C11.2808 22.2636 11.3499 22.0967 11.473 21.9736C11.5961 21.8505 11.763 21.7814 11.937 21.7814H23.478L21.9727 20.2769C21.8496 20.1538 21.7804 19.9868 21.7804 19.8126C21.7804 19.6385 21.8496 19.4715 21.9727 19.3483C22.0959 19.2252 22.2629 19.156 22.437 19.156C22.6112 19.156 22.7782 19.2252 22.9013 19.3483L25.5263 21.9733C25.5874 22.0343 25.6358 22.1066 25.6688 22.1863C25.7018 22.266 25.7188 22.3514 25.7188 22.4376C25.7188 22.5239 25.7018 22.6093 25.6688 22.6889C25.6358 22.7686 25.5874 22.841 25.5263 22.9019ZM14.0977 17.6519C14.2209 17.7751 14.3879 17.8442 14.562 17.8442C14.7362 17.8442 14.9032 17.7751 15.0263 17.6519C15.1495 17.5288 15.2187 17.3618 15.2187 17.1876C15.2187 17.0135 15.1495 16.8465 15.0263 16.7233L13.5211 15.2189H25.062C25.2361 15.2189 25.403 15.1497 25.5261 15.0267C25.6491 14.9036 25.7183 14.7367 25.7183 14.5626C25.7183 14.3886 25.6491 14.2217 25.5261 14.0986C25.403 13.9755 25.2361 13.9064 25.062 13.9064H13.5211L15.0263 12.4019C15.1495 12.2788 15.2187 12.1118 15.2187 11.9376C15.2187 11.7635 15.1495 11.5965 15.0263 11.4733C14.9032 11.3502 14.7362 11.281 14.562 11.281C14.3879 11.281 14.2209 11.3502 14.0977 11.4733L11.4727 14.0983C11.4117 14.1593 11.3633 14.2316 11.3303 14.3113C11.2973 14.391 11.2803 14.4764 11.2803 14.5626C11.2803 14.6489 11.2973 14.7343 11.3303 14.8139C11.3633 14.8936 11.4117 14.966 11.4727 15.0269L14.0977 17.6519Z" fill="#343330"/>
</svg>
