<svg xmlns="http://www.w3.org/2000/svg" width="40" height="40"
                                            viewBox="0 0 40 40" fill="none">
                                            <path
                                                d="M25.9738 12.0275C31.8694 12.9423 36 17.9983 36 24.0982C36 28.1837 33.9764 31.8004 30.8689 34.0187V37.9999H25.2388V35.6365C19.361 37.9069 14.877 35.6224 14.877 35.6224L14.8773 38H9.16669V33.9666C7.82785 33.0157 5.95482 31.2488 5.20001 28.4635C3.43269 28.4635 2 28.4635 2 28.4635V18.9257C2 18.9257 3.47612 18.9257 5.29696 18.9257C5.83888 17.8818 6.9895 15.8278 8.37191 14.7412V9.00101H8.52576C10.7264 8.96243 12.3927 10.0263 13.5256 11.8799H15.9274"
                                                stroke="#AF0B35" stroke-width="1.35" stroke-miterlimit="10"
                                                stroke-linecap="square" />
                                            <path
                                                d="M35 18.7831H35.0922C36.5501 18.7831 37.7319 17.6009 37.7319 16.1426V15"
                                                stroke="#AF0B35" stroke-width="1.35" stroke-miterlimit="10"
                                                stroke-linecap="square" />
                                            <path
                                                d="M21 14C24.3137 14 27 11.3137 27 8C27 4.68629 24.3137 2 21 2C17.6863 2 15 4.68629 15 8C15 11.3137 17.6863 14 21 14Z"
                                                stroke="#AF0B35" stroke-width="1.35" stroke-miterlimit="10"
                                                stroke-linecap="square" />
                                        </svg>