<svg width="37" height="36" viewBox="0 0 37 36" fill="none" xmlns="http://www.w3.org/2000/svg">
<circle cx="18.5" cy="18" r="18" transform="rotate(-90 18.5 18)" fill="white"/>
<circle cx="18.5" cy="18" r="17.5" transform="rotate(-90 18.5 18)" stroke="black" stroke-opacity="0.1"/>
<path d="M23.4017 10.4732L26.0267 13.0982C26.1498 13.2213 26.219 13.3883 26.219 13.5625C26.219 13.7366 26.1498 13.9036 26.0267 14.0268C25.9035 14.1499 25.7365 14.2191 25.5624 14.2191C25.3882 14.2191 25.2212 14.1499 25.0981 14.0268L23.5936 12.5215V24.0625C23.5936 24.2365 23.5245 24.4034 23.4014 24.5265C23.2783 24.6496 23.1114 24.7187 22.9374 24.7187C22.7633 24.7187 22.5964 24.6496 22.4733 24.5265C22.3503 24.4034 22.2811 24.2365 22.2811 24.0625V12.5215L20.7767 14.0268C20.6535 14.1499 20.4865 14.2191 20.3124 14.2191C20.1382 14.2191 19.9712 14.1499 19.8481 14.0268C19.7249 13.9036 19.6558 13.7366 19.6558 13.5625C19.6558 13.3883 19.7249 13.2213 19.8481 13.0982L22.4731 10.4732C22.534 10.4122 22.6064 10.3638 22.6861 10.3307C22.7657 10.2977 22.8511 10.2807 22.9374 10.2807C23.0236 10.2807 23.109 10.2977 23.1887 10.3307C23.2683 10.3638 23.3407 10.4122 23.4017 10.4732ZM18.1517 21.9018C18.2748 21.7786 18.344 21.6116 18.344 21.4375C18.344 21.2633 18.2748 21.0963 18.1517 20.9732C18.0285 20.85 17.8615 20.7809 17.6874 20.7809C17.5132 20.7809 17.3462 20.85 17.2231 20.9732L15.7186 22.4784V10.9375C15.7186 10.7634 15.6495 10.5965 15.5264 10.4734C15.4033 10.3504 15.2364 10.2812 15.0624 10.2812C14.8883 10.2812 14.7214 10.3504 14.5983 10.4734C14.4753 10.5965 14.4061 10.7634 14.4061 10.9375V22.4784L12.9017 20.9732C12.7785 20.85 12.6115 20.7809 12.4374 20.7809C12.2632 20.7809 12.0962 20.85 11.9731 20.9732C11.8499 21.0963 11.7808 21.2633 11.7808 21.4375C11.7808 21.6116 11.8499 21.7786 11.9731 21.9018L14.5981 24.5268C14.659 24.5878 14.7314 24.6362 14.8111 24.6692C14.8907 24.7022 14.9761 24.7192 15.0624 24.7192C15.1486 24.7192 15.234 24.7022 15.3137 24.6692C15.3933 24.6362 15.4657 24.5878 15.5267 24.5268L18.1517 21.9018Z" fill="#343330"/>
</svg>
