<svg xmlns="http://www.w3.org/2000/svg" width="40" height="40"
                                            viewBox="0 0 40 40" fill="none">
                                            <path
                                                d="M33.875 17.5C36.2912 17.5 38.25 15.5412 38.25 13.125C38.25 10.7088 36.2912 8.75 33.875 8.75C31.4588 8.75 29.5 10.7088 29.5 13.125C29.5 15.5412 31.4588 17.5 33.875 17.5Z"
                                                stroke="#AF0B35" stroke-width="1.35" stroke-miterlimit="10"
                                                stroke-linecap="square" />
                                            <path d="M9.5 32.5H3.25V23.75H9.5" stroke="#AF0B35" stroke-width="1.35"
                                                stroke-miterlimit="10" stroke-linecap="square" />
                                            <path
                                                d="M19.5 25H24.5L34.9688 22.5922C35.3536 22.4867 35.7577 22.4714 36.1494 22.5475C36.5412 22.6236 36.9101 22.789 37.2276 23.0308C37.545 23.2727 37.8024 23.5845 37.9797 23.942C38.157 24.2995 38.2495 24.6931 38.25 25.0922C38.2502 25.574 38.1161 26.0464 37.8627 26.4563C37.6093 26.8661 37.2467 27.1973 36.8156 27.4125L30.75 30L20.75 32.5H9.5V23.75L14.6255 18.75H23.875C24.7038 18.75 25.4987 19.0792 26.0847 19.6653C26.6708 20.2513 27 21.0462 27 21.875C27 22.7038 26.6708 23.4987 26.0847 24.0847C25.4987 24.6708 24.7038 25 23.875 25H19.5Z"
                                                stroke="#AF0B35" stroke-width="1.35" stroke-miterlimit="10"
                                                stroke-linecap="square" />
                                            <path
                                                d="M29.4994 13.3261C28.6503 13.7277 27.6945 13.8453 26.7733 13.6616C25.8522 13.4779 25.0146 13.0026 24.3845 12.3061C23.7543 11.6095 23.3651 10.7286 23.2744 9.79372C23.1836 8.85881 23.3962 7.91953 23.8806 7.11479C24.365 6.31004 25.0956 5.68257 25.9642 5.32517C26.8329 4.96777 27.7935 4.89943 28.704 5.13024C29.6145 5.36106 30.4265 5.87878 31.02 6.60683C31.6135 7.33488 31.9569 8.23461 31.9994 9.17294"
                                                stroke="#AF0B35" stroke-width="1.35" stroke-miterlimit="10"
                                                stroke-linecap="square" />
                                        </svg>