<svg xmlns="http://www.w3.org/2000/svg" width="40" height="40"
                                            viewBox="0 0 40 40" fill="none">
                                            <path
                                                d="M5.625 10C5.625 9.83424 5.69085 9.67527 5.80806 9.55806C5.92527 9.44085 6.08424 9.375 6.25 9.375H33.75C33.9158 9.375 34.0747 9.44085 34.1919 9.55806C34.3092 9.67527 34.375 9.83424 34.375 10C34.375 10.1658 34.3092 10.3247 34.1919 10.4419C34.0747 10.5592 33.9158 10.625 33.75 10.625H6.25C6.08424 10.625 5.92527 10.5592 5.80806 10.4419C5.69085 10.3247 5.625 10.1658 5.625 10ZM6.25 20.625H15C15.1658 20.625 15.3247 20.5592 15.4419 20.4419C15.5592 20.3247 15.625 20.1658 15.625 20C15.625 19.8342 15.5592 19.6753 15.4419 19.5581C15.3247 19.4408 15.1658 19.375 15 19.375H6.25C6.08424 19.375 5.92527 19.4408 5.80806 19.5581C5.69085 19.6753 5.625 19.8342 5.625 20C5.625 20.1658 5.69085 20.3247 5.80806 20.4419C5.92527 20.5592 6.08424 20.625 6.25 20.625ZM17.5 29.375H6.25C6.08424 29.375 5.92527 29.4408 5.80806 29.5581C5.69085 29.6753 5.625 29.8342 5.625 30C5.625 30.1658 5.69085 30.3247 5.80806 30.4419C5.92527 30.5592 6.08424 30.625 6.25 30.625H17.5C17.6658 30.625 17.8247 30.5592 17.9419 30.4419C18.0592 30.3247 18.125 30.1658 18.125 30C18.125 29.8342 18.0592 29.6753 17.9419 29.5581C17.8247 29.4408 17.6658 29.375 17.5 29.375ZM36.6484 21.9844L32.8266 25.1391L33.9922 29.8438C34.0219 29.9632 34.0156 30.0888 33.9742 30.2047C33.9328 30.3206 33.858 30.4217 33.7594 30.4953C33.6507 30.5753 33.5193 30.6185 33.3844 30.6188C33.2745 30.6181 33.1667 30.5884 33.0719 30.5328L28.75 27.9969L24.4312 30.5391C24.3252 30.6014 24.2031 30.6311 24.0803 30.6244C23.9574 30.6176 23.8393 30.5748 23.7407 30.5012C23.6421 30.4276 23.5674 30.3266 23.526 30.2107C23.4845 30.0949 23.4782 29.9694 23.5078 29.85L24.6734 25.1391L20.8516 21.9844C20.7551 21.9051 20.6845 21.7988 20.649 21.6791C20.6135 21.5595 20.6147 21.4319 20.6523 21.3129C20.69 21.1938 20.7624 21.0888 20.8603 21.0113C20.9582 20.9338 21.0771 20.8874 21.2016 20.8781L26.2391 20.4891L28.1766 16.0031C28.225 15.8913 28.3051 15.7961 28.407 15.7292C28.5089 15.6623 28.6281 15.6267 28.75 15.6267C28.8719 15.6267 28.9911 15.6623 29.093 15.7292C29.1949 15.7961 29.275 15.8913 29.3234 16.0031L31.2609 20.4891L36.2984 20.8781C36.4229 20.8874 36.5418 20.9338 36.6397 21.0113C36.7376 21.0888 36.81 21.1938 36.8477 21.3129C36.8853 21.4319 36.8865 21.5595 36.851 21.6791C36.8155 21.7988 36.7449 21.9051 36.6484 21.9844ZM34.6578 22.0062L30.7812 21.7062C30.6679 21.6974 30.5591 21.6578 30.4666 21.5917C30.3741 21.5257 30.3014 21.4356 30.2563 21.3313L28.75 17.8281L27.2375 21.3313C27.1924 21.4356 27.1196 21.5257 27.0271 21.5917C26.9346 21.6578 26.8258 21.6974 26.7125 21.7062L22.8422 22.0062L25.7812 24.4266C25.8706 24.5011 25.9375 24.599 25.9742 24.7095C26.0109 24.8199 26.016 24.9384 25.9891 25.0516L25.0859 28.7016L28.4375 26.7328C28.5336 26.6762 28.6431 26.6463 28.7547 26.6463C28.8662 26.6463 28.9758 26.6762 29.0719 26.7328L32.4266 28.7078L31.5234 25.0578C31.4965 24.9446 31.5016 24.8261 31.5383 24.7157C31.575 24.6053 31.6419 24.5073 31.7313 24.4328L34.6578 22.0062Z"
                                                fill="#AF0B35" />
                                        </svg>