<svg width="14" height="14" viewBox="0 0 14 14" fill="none" xmlns="http://www.w3.org/2000/svg">
<path d="M10.9085 4.78629L10.8731 4.75094C11.0058 4.61828 11.1857 4.54375 11.3733 4.54375C11.5609 4.54375 11.7409 4.61828 11.8735 4.75094C12.0062 4.8836 12.0807 5.06353 12.0807 5.25114C12.0807 5.43875 12.0062 5.61868 11.8735 5.75134L11.8678 5.75708L11.8667 5.75762L7.49749 10.1268L10.9085 4.78629ZM10.9085 4.78629L10.8731 4.75094L6.99778 8.62683M10.9085 4.78629L6.99778 8.62683M6.99778 8.62683L3.12243 4.75149C2.98977 4.61883 2.80984 4.5443 2.62223 4.5443C2.43462 4.5443 2.25469 4.61883 2.12203 4.75149C1.98937 4.88415 1.91484 5.06407 1.91484 5.25169C1.91484 5.4393 1.98937 5.61922 2.12203 5.75188L6.49697 10.1268L6.99778 8.62683ZM7.26807 10.2806C7.35389 10.2449 7.43183 10.1927 7.49743 10.1269H6.49703C6.56263 10.1927 6.64058 10.2449 6.7264 10.2806C6.81224 10.3162 6.90428 10.3345 6.99723 10.3345C7.09018 10.3345 7.18222 10.3162 7.26807 10.2806Z" fill="#606060" stroke="#606060" stroke-width="0.1"/>
</svg>
