<svg xmlns="http://www.w3.org/2000/svg" width="40" height="40"
                                            viewBox="0 0 40 40" fill="none">
                                            <path
                                                d="M34.8439 16.4961C34.2189 15.8398 33.5627 15.1617 33.2814 14.4961C33.0236 13.8711 33.0111 13.007 32.9971 12.0883C32.9752 10.682 32.9518 9.08984 31.9299 8.06641C30.908 7.04297 29.3143 7.02109 27.908 6.99922C26.9893 6.98516 26.1221 6.97266 25.5002 6.71484C24.8346 6.43984 24.1564 5.78828 23.5002 5.15234C22.4564 4.15234 21.3768 3.12109 19.9971 3.12109C18.6174 3.12109 17.5377 4.15547 16.4939 5.15234C15.8377 5.77734 15.1596 6.43359 14.4939 6.71484C13.8689 6.97266 13.0049 6.98516 12.0861 6.99922C10.6799 7.02109 9.0877 7.04453 8.06426 8.06641C7.04082 9.08828 7.02207 10.682 7.0002 12.0883C6.98613 13.007 6.97363 13.8742 6.71582 14.4961C6.44082 15.1617 5.78926 15.8398 5.15332 16.4961C4.15332 17.5398 3.12207 18.6195 3.12207 19.9992C3.12207 21.3789 4.15645 22.4586 5.15332 23.5023C5.77832 24.1586 6.43457 24.8367 6.71582 25.5023C6.97363 26.1273 6.98613 26.9914 7.0002 27.9102C7.02207 29.3164 7.04551 30.9086 8.06738 31.932C9.08926 32.9555 10.683 32.9773 12.0893 32.9992C13.008 33.0133 13.8752 33.0258 14.4971 33.2836C15.1627 33.5586 15.8408 34.2102 16.4971 34.8461C17.5408 35.8461 18.6205 36.8773 20.0002 36.8773C21.3799 36.8773 22.4596 35.843 23.5033 34.8461C24.1596 34.2211 24.8377 33.5648 25.5033 33.2836C26.1283 33.0258 26.9924 33.0133 27.9111 32.9992C29.3174 32.9773 30.9096 32.9539 31.933 31.932C32.9564 30.9102 32.9783 29.3164 33.0002 27.9102C33.0143 26.9914 33.0268 26.1242 33.2846 25.5023C33.5596 24.8367 34.2111 24.1586 34.8471 23.5023C35.8471 22.4586 36.8783 21.3789 36.8783 19.9992C36.8783 18.6195 35.8408 17.5398 34.8439 16.4961ZM33.9408 22.6367C33.2314 23.3758 32.4971 24.1414 32.133 25.0242C31.7846 25.8664 31.7689 26.8992 31.7533 27.8914C31.7346 29.1727 31.7158 30.3914 31.0518 31.0477C30.3877 31.7039 29.1768 31.7305 27.8955 31.7492C26.9002 31.7648 25.8643 31.7805 25.0283 32.1289C24.1455 32.4945 23.3799 33.2227 22.6408 33.9367C21.733 34.8039 20.8783 35.6242 20.0002 35.6242C19.1221 35.6242 18.2674 34.8039 17.3627 33.9367C16.6236 33.2273 15.858 32.4945 14.9752 32.1289C14.133 31.7805 13.1002 31.7648 12.108 31.7492C10.8268 31.7305 9.61582 31.7117 8.95176 31.0477C8.2877 30.3836 8.26895 29.1727 8.2502 27.8914C8.23457 26.8961 8.21895 25.8602 7.87051 25.0242C7.50645 24.1414 6.77676 23.3758 6.0627 22.6367C5.19551 21.732 4.3752 20.8773 4.3752 19.9992C4.3752 19.1211 5.19551 18.2664 6.0627 17.3617C6.77207 16.6227 7.50645 15.857 7.87051 14.9742C8.21895 14.132 8.23457 13.0992 8.2502 12.107C8.26895 10.8258 8.2877 9.61484 8.95176 8.95078C9.61582 8.28672 10.8268 8.26797 12.108 8.24922C13.1033 8.23359 14.1393 8.21797 14.9752 7.86953C15.858 7.50391 16.6236 6.77578 17.3627 6.06172C18.2674 5.19453 19.1221 4.37422 20.0002 4.37422C20.8783 4.37422 21.733 5.19453 22.6377 6.06172C23.3768 6.77109 24.1424 7.50391 25.0252 7.86953C25.8674 8.21797 26.9002 8.23359 27.8924 8.24922C29.1736 8.26797 30.3924 8.28672 31.0486 8.95078C31.7049 9.61484 31.7314 10.8258 31.7502 12.107C31.7658 13.1023 31.7814 14.1383 32.1299 14.9742C32.4939 15.857 33.2236 16.6227 33.9377 17.3617C34.8049 18.2664 35.6252 19.1211 35.6252 19.9992C35.6252 20.8773 34.8049 21.732 33.9377 22.6367H33.9408ZM18.1252 14.9992C18.1252 14.3812 17.9419 13.777 17.5985 13.2631C17.2552 12.7492 16.7671 12.3486 16.1961 12.1121C15.6251 11.8756 14.9967 11.8137 14.3905 11.9343C13.7843 12.0548 13.2275 12.3525 12.7905 12.7895C12.3534 13.2265 12.0558 13.7834 11.9352 14.3896C11.8147 14.9958 11.8765 15.6241 12.1131 16.1951C12.3496 16.7661 12.7501 17.2542 13.264 17.5976C13.7779 17.9409 14.3821 18.1242 15.0002 18.1242C15.829 18.1242 16.6239 17.795 17.2099 17.2089C17.796 16.6229 18.1252 15.828 18.1252 14.9992ZM13.1252 14.9992C13.1252 14.6284 13.2352 14.2659 13.4412 13.9575C13.6472 13.6492 13.9401 13.4089 14.2827 13.2669C14.6253 13.125 15.0023 13.0879 15.366 13.1602C15.7297 13.2326 16.0638 13.4112 16.326 13.6734C16.5882 13.9356 16.7668 14.2697 16.8392 14.6334C16.9115 14.9971 16.8744 15.3741 16.7325 15.7167C16.5906 16.0594 16.3502 16.3522 16.0419 16.5582C15.7335 16.7643 15.371 16.8742 15.0002 16.8742C14.5029 16.8742 14.026 16.6767 13.6744 16.325C13.3227 15.9734 13.1252 15.4965 13.1252 14.9992ZM25.0002 21.8742C24.3821 21.8742 23.7779 22.0575 23.264 22.4009C22.7501 22.7443 22.3496 23.2323 22.1131 23.8033C21.8765 24.3744 21.8147 25.0027 21.9352 25.6089C22.0558 26.2151 22.3534 26.7719 22.7905 27.2089C23.2275 27.646 23.7843 27.9436 24.3905 28.0642C24.9967 28.1848 25.6251 28.1229 26.1961 27.8863C26.7671 27.6498 27.2552 27.2493 27.5985 26.7354C27.9419 26.2215 28.1252 25.6173 28.1252 24.9992C28.1252 24.1704 27.796 23.3756 27.2099 22.7895C26.6239 22.2035 25.829 21.8742 25.0002 21.8742ZM25.0002 26.8742C24.6294 26.8742 24.2668 26.7643 23.9585 26.5582C23.6502 26.3522 23.4098 26.0594 23.2679 25.7167C23.126 25.3741 23.0889 24.9971 23.1612 24.6334C23.2336 24.2697 23.4121 23.9356 23.6744 23.6734C23.9366 23.4112 24.2707 23.2326 24.6344 23.1602C24.9981 23.0879 25.3751 23.125 25.7177 23.2669C26.0603 23.4089 26.3532 23.6492 26.5592 23.9575C26.7652 24.2659 26.8752 24.6284 26.8752 24.9992C26.8752 25.4965 26.6777 25.9734 26.326 26.325C25.9744 26.6767 25.4975 26.8742 25.0002 26.8742ZM26.6924 14.1914L14.1924 26.6914C14.0751 26.8087 13.916 26.8746 13.7502 26.8746C13.5843 26.8746 13.4253 26.8087 13.308 26.6914C13.1907 26.5741 13.1248 26.4151 13.1248 26.2492C13.1248 26.0834 13.1907 25.9243 13.308 25.807L25.808 13.307C25.8661 13.249 25.935 13.2029 26.0109 13.1715C26.0868 13.14 26.1681 13.1239 26.2502 13.1239C26.3323 13.1239 26.4136 13.14 26.4895 13.1715C26.5654 13.2029 26.6343 13.249 26.6924 13.307C26.7505 13.3651 26.7965 13.434 26.8279 13.5099C26.8594 13.5858 26.8755 13.6671 26.8755 13.7492C26.8755 13.8313 26.8594 13.9127 26.8279 13.9885C26.7965 14.0644 26.7505 14.1333 26.6924 14.1914Z"
                                                fill="#AF0B35" />
                                        </svg>