<svg xmlns="http://www.w3.org/2000/svg" width="40" height="40"
                                            viewBox="0 0 40 40" fill="none">
                                            <path
                                                d="M20.3574 25C23.1188 25 25.3574 22.7614 25.3574 20C25.3574 17.2386 23.1188 15 20.3574 15C17.596 15 15.3574 17.2386 15.3574 20C15.3574 22.7614 17.596 25 20.3574 25Z"
                                                stroke="#AF0B35" stroke-width="1.5" stroke-miterlimit="10"
                                                stroke-linecap="square" />
                                            <path d="M37.8574 10H2.85742V30H37.8574V10Z" stroke="#AF0B35"
                                                stroke-width="1.5" stroke-miterlimit="10" stroke-linecap="square" />
                                            <path
                                                d="M37.8574 16.25C36.296 15.9854 34.8555 15.2416 33.7357 14.1217C32.6159 13.0019 31.8721 11.5614 31.6074 10"
                                                stroke="#AF0B35" stroke-width="1.5" stroke-miterlimit="10"
                                                stroke-linecap="square" />
                                            <path
                                                d="M31.6074 30C31.8721 28.4386 32.6159 26.9981 33.7357 25.8783C34.8555 24.7584 36.296 24.0146 37.8574 23.75"
                                                stroke="#AF0B35" stroke-width="1.5" stroke-miterlimit="10"
                                                stroke-linecap="square" />
                                            <path
                                                d="M2.85742 23.75C4.41885 24.0146 5.8593 24.7584 6.97915 25.8783C8.09899 26.9981 8.84278 28.4386 9.10742 30"
                                                stroke="#AF0B35" stroke-width="1.5" stroke-miterlimit="10"
                                                stroke-linecap="square" />
                                            <path
                                                d="M9.10742 10C8.84278 11.5614 8.09899 13.0019 6.97915 14.1217C5.8593 15.2416 4.41885 15.9854 2.85742 16.25"
                                                stroke="#AF0B35" stroke-width="1.5" stroke-miterlimit="10"
                                                stroke-linecap="square" />
                                        </svg>