<svg width="40" height="40" viewBox="0 0 40 40" fill="none" xmlns="http://www.w3.org/2000/svg">
<g id="FediverseLogo" clip-path="url(#clip0_1_3228)">
<path id="Vector" d="M23.125 10C24.8509 10 26.25 8.60089 26.25 6.875C26.25 5.14911 24.8509 3.75 23.125 3.75C21.3991 3.75 20 5.14911 20 6.875C20 8.60089 21.3991 10 23.125 10Z" stroke="#AF0B35" stroke-width="1.35" stroke-linecap="round" stroke-linejoin="round"/>
<path id="Vector_2" d="M33.125 22.5C34.8509 22.5 36.25 21.1009 36.25 19.375C36.25 17.6491 34.8509 16.25 33.125 16.25C31.3991 16.25 30 17.6491 30 19.375C30 21.1009 31.3991 22.5 33.125 22.5Z" stroke="#AF0B35" stroke-width="1.35" stroke-linecap="round" stroke-linejoin="round"/>
<path id="Vector_3" d="M24.375 36.25C26.1009 36.25 27.5 34.8509 27.5 33.125C27.5 31.3991 26.1009 30 24.375 30C22.6491 30 21.25 31.3991 21.25 33.125C21.25 34.8509 22.6491 36.25 24.375 36.25Z" stroke="#AF0B35" stroke-width="1.35" stroke-linecap="round" stroke-linejoin="round"/>
<path id="Vector_4" d="M8.75 31.875C10.4759 31.875 11.875 30.4759 11.875 28.75C11.875 27.0241 10.4759 25.625 8.75 25.625C7.02411 25.625 5.625 27.0241 5.625 28.75C5.625 30.4759 7.02411 31.875 8.75 31.875Z" stroke="#AF0B35" stroke-width="1.35" stroke-linecap="round" stroke-linejoin="round"/>
<path id="Vector_5" d="M8.125 16.25C9.85089 16.25 11.25 14.8509 11.25 13.125C11.25 11.3991 9.85089 10 8.125 10C6.39911 10 5 11.3991 5 13.125C5 14.8509 6.39911 16.25 8.125 16.25Z" stroke="#AF0B35" stroke-width="1.35" stroke-linecap="round" stroke-linejoin="round"/>
<path id="Vector_6" d="M31.4465 22.0117L26.0527 30.4867" stroke="#AF0B35" stroke-width="1.35" stroke-linecap="round" stroke-linejoin="round"/>
<path id="Vector_7" d="M25.0762 9.31641L31.173 16.9352" stroke="#AF0B35" stroke-width="1.35" stroke-linecap="round" stroke-linejoin="round"/>
<path id="Vector_8" d="M11.0107 11.923L20.2389 8.07617" stroke="#AF0B35" stroke-width="1.35" stroke-linecap="round" stroke-linejoin="round"/>
<path id="Vector_9" d="M30.0031 19.5234L20 20" stroke="#AF0B35" stroke-width="1.35" stroke-linecap="round" stroke-linejoin="round"/>
<path id="Vector_10" d="M20 20.0004L22.4016 9.91602" stroke="#AF0B35" stroke-width="1.35" stroke-linecap="round" stroke-linejoin="round"/>
<path id="Vector_11" d="M10.8301 14.6914L20.0004 20.0008" stroke="#AF0B35" stroke-width="1.35" stroke-linecap="round" stroke-linejoin="round"/>
<path id="Vector_12" d="M20 20L23.3859 30.1594" stroke="#AF0B35" stroke-width="1.35" stroke-linecap="round" stroke-linejoin="round"/>
<path id="Vector_13" d="M21.366 32.2824L11.7598 29.5918" stroke="#AF0B35" stroke-width="1.35" stroke-linecap="round" stroke-linejoin="round"/>
<path id="Vector_14" d="M11.2168 26.8312L19.9996 20" stroke="#AF0B35" stroke-width="1.35" stroke-linecap="round" stroke-linejoin="round"/>
<path id="Vector_15" d="M8.625 25.6273L8.25 16.2461" stroke="#AF0B35" stroke-width="1.35" stroke-linecap="round" stroke-linejoin="round"/>
</g>
<defs>
<clipPath id="clip0_1_3228">
<rect width="40" height="40" fill="white"/>
</clipPath>
</defs>
</svg>
