<svg width="30" height="30" viewBox="0 0 30 30" fill="none" xmlns="http://www.w3.org/2000/svg">
<g id="Frame" clip-path="url(#clip0_3967_1564)">
<path id="Vector" d="M28.5785 7.82968C28.2652 6.66495 27.3468 5.74682 26.1823 5.43318C24.0548 4.85107 15.5446 4.85107 15.5446 4.85107C15.5446 4.85107 7.03472 4.85107 4.90722 5.41114C3.76504 5.72443 2.82436 6.66516 2.51106 7.82968C1.95117 9.95701 1.95117 14.3689 1.95117 14.3689C1.95117 14.3689 1.95117 18.803 2.51106 20.908C2.82465 22.0726 3.74266 22.9908 4.90739 23.3044C7.05711 23.8866 15.5449 23.8866 15.5449 23.8866C15.5449 23.8866 24.0548 23.8866 26.1823 23.3266C27.347 23.0131 28.2652 22.095 28.5788 20.9304C29.1385 18.8029 29.1385 14.3912 29.1385 14.3912C29.1385 14.3912 29.1609 9.95697 28.5785 7.82968ZM12.8351 18.4447V10.293L19.9117 14.3688L12.8351 18.4447Z" fill="#AF0B35"/>
</g>
<defs>
<clipPath id="clip0_3967_1564">
<rect width="29" height="29" fill="white" transform="translate(0.5 0.5)"/>
</clipPath>
</defs>
</svg>
