<svg width="29" height="27" viewBox="0 0 29 27" fill="none" xmlns="http://www.w3.org/2000/svg">
<g id="Group 1000002796">
<path id="Vector" d="M5.20324 23.5503C5.09623 23.5034 5.01759 23.4501 5.14394 23.3449C5.22129 23.2865 5.30509 23.2333 5.3889 23.18C6.17148 22.6803 6.90636 22.1337 7.39112 21.3284C7.79724 20.6587 7.73149 20.2643 7.22352 19.771C4.38972 16.9834 3.14687 13.6504 3.76829 9.7125C4.12026 7.49053 5.15425 5.56787 6.66011 3.89886C7.56904 2.88806 8.64944 2.07005 9.83299 1.389C9.90518 1.34841 10.0057 1.33573 10.0186 1.23047C9.99414 1.17213 9.95289 1.18988 9.91679 1.18988C7.90296 1.18988 5.88913 1.1493 3.88175 1.2013C1.95688 1.25964 0.296307 2.72319 0.302753 4.82214C0.314356 10.9528 0.302753 17.0848 0.302753 23.2219C0.302753 25.1268 1.77896 26.7197 3.70899 26.7907C5.3399 26.8554 6.97211 26.8021 8.60947 26.797C8.72938 26.8034 8.84799 26.8085 8.96789 26.8085H17.5969C19.7487 26.8085 21.8992 26.8199 24.051 26.8085C26.0468 26.8085 27.6661 25.2219 27.6661 23.2637V23.2282V19.7887C27.6661 19.7063 27.6957 19.6188 27.6416 19.53C27.5346 19.5363 27.492 19.6238 27.4327 19.6835C26.2737 20.8299 24.9045 21.7532 23.4051 22.4051C19.7294 23.998 15.9892 24.1096 12.1949 22.8287C11.8662 22.7108 11.5077 22.6993 11.1674 22.7818C10.6658 22.9048 10.1695 23.0519 9.67312 23.199C8.21496 23.6442 6.72586 23.8433 5.20324 23.5503ZM9.53517 13.6441C9.63702 13.5147 9.69117 13.4386 9.75047 13.3625C10.5331 12.3872 11.3156 11.4107 12.0995 10.4291C12.3264 10.1475 12.5533 9.85835 12.6977 9.51846C12.8653 9.13037 12.6861 8.76639 12.28 8.62434C12.1008 8.57108 11.91 8.54825 11.7179 8.55966C10.6542 8.55332 9.58416 8.55332 8.52052 8.55966C8.37096 8.55966 8.22141 8.57742 8.0783 8.61293C7.74309 8.69536 7.54068 9.03018 7.62448 9.365C7.68378 9.58821 7.86299 9.7645 8.09119 9.81776C8.2343 9.85327 8.38385 9.87103 8.53341 9.86469C9.17933 9.87103 9.83041 9.86469 10.475 9.87103C10.5472 9.87103 10.6362 9.8241 10.6903 9.92937C10.6362 10.0004 10.5833 10.0701 10.5292 10.1348C9.6035 11.2864 8.68296 12.4456 7.75598 13.5971C7.52907 13.885 7.40917 14.2021 7.57678 14.5559C7.74438 14.9098 8.08474 14.9732 8.43156 14.9973C8.70617 15.015 8.98723 15.0036 9.26829 15.0036C10.2365 15.0036 11.1983 15.01 12.1666 14.9973C12.681 14.9909 12.9556 14.6853 12.9014 14.216C12.8602 13.8457 12.6023 13.6517 12.124 13.6453C11.2795 13.639 10.4376 13.6441 9.53517 13.6441ZM16.4675 10.5521C15.721 9.91161 14.8959 9.86976 14.0888 10.3403C13.109 10.9046 12.7506 11.8279 12.8692 12.8971C12.9827 13.8964 13.4249 14.7132 14.4885 15.048C15.1512 15.2598 15.7675 15.1837 16.3115 14.7487C16.4546 14.6371 16.4972 14.6599 16.5977 14.7842C16.795 15.0315 17.1354 15.1254 17.4345 15.0138C17.7336 14.925 17.9308 14.6549 17.9308 14.3492C17.9373 13.1735 17.9424 11.9979 17.9308 10.8222C17.9244 10.3517 17.477 10.0524 17.0103 10.1462C16.7537 10.1995 16.6106 10.3707 16.4675 10.5521ZM20.6086 12.7335C20.5842 14.2034 21.8218 15.3143 23.3754 15.1609C24.8039 15.0201 25.7296 13.9675 25.6819 12.4798C25.6342 11.0099 24.5228 10.0055 22.9989 10.0524C21.5704 10.0942 20.5609 11.223 20.6086 12.7335ZM20.0826 11.5641C20.0826 10.6409 20.0891 9.72391 20.0826 8.80063C20.0826 8.33011 19.7784 8.03588 19.3232 8.04222C18.881 8.04856 18.5884 8.34152 18.5819 8.79429C18.5755 9.07077 18.5819 9.3409 18.5819 9.61738V14.2909C18.5819 14.6549 18.8088 14.9732 19.1079 15.0493C19.5205 15.1609 19.9447 14.9199 20.0517 14.5141C20.0697 14.4431 20.0813 14.3733 20.0762 14.2972C20.0891 13.3853 20.0826 12.4747 20.0826 11.5641Z" fill="#AF0B35"/>
<path id="Vector_2" d="M8.6036 26.8011C6.97268 26.8011 5.33532 26.8543 3.70311 26.7947C1.77308 26.7186 0.296875 25.1257 0.296875 23.2259C0.296875 17.0952 0.308478 10.9632 0.296875 4.82616C0.296875 2.72722 1.96389 1.26366 3.88232 1.21039C5.8897 1.15713 7.90353 1.19898 9.91736 1.19898C9.95346 1.19898 10.0012 1.18122 10.0192 1.23956C10.0076 1.34483 9.89931 1.35751 9.83356 1.39809C8.6513 2.08168 7.56961 2.89843 6.66068 3.91049C5.16127 5.5795 4.12083 7.49582 3.76886 9.72413C3.14744 13.657 4.39673 16.9963 7.2228 19.7826C7.72432 20.2823 7.79007 20.6704 7.3904 21.34C6.90693 22.1453 6.17076 22.692 5.38818 23.1916C5.30437 23.2386 5.22057 23.2969 5.13677 23.3502C5.01171 23.4554 5.08907 23.5087 5.19607 23.5556C5.22057 23.6089 5.25022 23.6558 5.28632 23.7027C5.9735 24.3026 6.62458 24.9431 7.30015 25.5544C7.61731 25.8423 7.93318 26.1429 8.23874 26.4422C8.36379 26.5538 8.57394 26.5893 8.6036 26.8011Z" fill="#AF0B35"/>
<path id="Vector_3" d="M8.60283 26.8012C8.57318 26.5957 8.36432 26.5602 8.23797 26.4372C7.93371 26.1316 7.61655 25.8373 7.29939 25.5494C6.62382 24.9381 5.97274 24.2977 5.28556 23.6978C5.24946 23.6509 5.21981 23.6039 5.19531 23.5507C6.71922 23.8449 8.20703 23.6445 9.67163 23.2044C10.168 23.0573 10.6631 22.9102 11.1659 22.7872C11.5063 22.6984 11.8647 22.7162 12.1934 22.8341C15.9826 24.115 19.7227 23.9984 23.4036 22.4105C24.903 21.7586 26.2722 20.8404 27.4312 19.6952C27.4905 19.6369 27.5331 19.5481 27.6401 19.5417C27.6942 19.6242 27.6646 19.7117 27.6646 19.8005V23.24C27.6762 25.2032 26.0749 26.8025 24.0791 26.8202H24.0495C21.8977 26.8316 19.7472 26.8202 17.5954 26.8202H8.96125C8.84135 26.8063 8.72274 26.8012 8.60283 26.8012Z" fill="#AF0B35"/>
<path id="Vector_4" d="M9.53565 13.6447C10.4381 13.6447 11.2865 13.6383 12.1296 13.6447C12.6015 13.651 12.8581 13.8451 12.9071 14.2154C12.9612 14.6796 12.6866 14.9916 12.1722 14.9966C11.204 15.008 10.2422 15.003 9.27393 15.003C8.99287 15.003 8.71825 15.0144 8.43719 14.9966C8.09038 14.9789 7.75002 14.9079 7.58241 14.5553C7.41481 14.2027 7.53471 13.8856 7.76162 13.5965C8.68215 12.4449 9.60785 11.2857 10.5348 10.1342C10.589 10.0632 10.6418 9.9934 10.696 9.92872C10.6367 9.82852 10.5529 9.87545 10.4807 9.87038C9.83476 9.86403 9.18368 9.87038 8.53905 9.86403C8.38949 9.86403 8.23994 9.84628 8.09683 9.81711C7.75646 9.74102 7.5476 9.4062 7.62496 9.07645C7.67911 8.85324 7.85832 8.67061 8.08523 8.61735C8.22833 8.58184 8.37789 8.56408 8.52744 8.56408C9.59109 8.55774 10.6612 8.55774 11.7248 8.56408C11.9156 8.55774 12.1013 8.58184 12.2869 8.62876C12.6931 8.76447 12.8671 9.13479 12.7047 9.52288C12.5615 9.85769 12.3346 10.1456 12.1064 10.4335C11.3239 11.4151 10.5413 12.3904 9.7574 13.3606C9.69036 13.4392 9.63105 13.5153 9.53565 13.6447Z" fill="#AF0B35"/>
<path id="Vector_5" d="M16.469 10.552C16.6121 10.3694 16.7617 10.1994 17.0067 10.1525C17.4785 10.0587 17.9207 10.358 17.9272 10.8285C17.9452 12.0041 17.9388 13.1798 17.9272 14.3555C17.9272 14.6611 17.7235 14.9313 17.4308 15.02C17.1317 15.1316 16.7913 15.0441 16.5941 14.7905C16.4922 14.6675 16.451 14.6434 16.3079 14.755C15.7638 15.19 15.1488 15.2661 14.4849 15.0543C13.4212 14.7131 12.9854 13.8964 12.8655 12.9033C12.7405 11.8279 13.1041 10.9109 14.0852 10.3466C14.8974 9.87096 15.7213 9.91154 16.469 10.552ZM14.3533 12.6979C14.365 12.9566 14.4488 13.2039 14.6048 13.4094C14.9271 13.833 15.5433 13.9205 15.9791 13.6034C16.0513 13.5501 16.1171 13.4855 16.1764 13.4094C16.5116 12.9629 16.5116 12.2274 16.1764 11.7809C16.0088 11.5514 15.7458 11.4169 15.4647 11.4106C14.8072 11.37 14.3469 11.8697 14.3533 12.6979ZM20.6101 12.7334C20.5624 11.2229 21.5719 10.0942 23.0069 10.0523C24.5308 10.0054 25.6421 11.0111 25.6898 12.4797C25.7375 13.9674 24.8119 15.0188 23.3833 15.1608C21.8233 15.3143 20.5856 14.2033 20.6101 12.7334ZM22.1096 12.5926C22.098 12.8868 22.1869 13.1747 22.3661 13.4157C22.6949 13.8393 23.3099 13.9217 23.7405 13.592C23.8062 13.5451 23.8604 13.4867 23.9132 13.4271C24.26 12.9807 24.26 12.2274 23.9197 11.7809C23.7521 11.5577 23.4891 11.4169 23.208 11.4106C22.5647 11.3751 22.1096 11.857 22.1096 12.5926ZM20.0841 11.5641C20.0841 12.4747 20.0906 13.3865 20.0841 14.2971C20.0906 14.7144 19.7554 15.0619 19.3312 15.0733C19.259 15.0733 19.1816 15.067 19.1094 15.0492C18.8103 14.9731 18.5834 14.6611 18.5834 14.2908V9.61731C18.5834 9.34083 18.577 9.07069 18.5834 8.79422C18.5899 8.34145 18.8825 8.04722 19.3247 8.04722C19.7786 8.04088 20.0841 8.33511 20.0841 8.80563C20.0906 9.72384 20.0841 10.6471 20.0841 11.5641Z" fill="#AF0B35"/>
<path id="Vector_6" d="M14.3516 12.699C14.3452 11.8695 14.8054 11.3698 15.4565 11.4053C15.7376 11.4168 16.0006 11.5525 16.1682 11.782C16.5034 12.2234 16.5034 12.964 16.1682 13.4104C15.8459 13.834 15.2296 13.9215 14.7938 13.6045C14.7216 13.5512 14.6559 13.4865 14.5966 13.4104C14.447 13.205 14.3632 12.9577 14.3516 12.699ZM22.1078 12.5937C22.1078 11.8644 22.5617 11.3774 23.2076 11.4117C23.4886 11.418 23.7516 11.5588 23.9193 11.782C24.2596 12.2284 24.2596 12.9868 23.9128 13.4282C23.5776 13.8454 22.9562 13.9165 22.532 13.5867C22.4663 13.5398 22.4121 13.4815 22.3644 13.4168C22.1865 13.1758 22.1027 12.8879 22.1078 12.5937Z" fill="white"/>
<path id="Vector_7" d="M4.21072 1.21777H23.8178C25.9632 1.21777 27.7024 2.92864 27.7024 5.039V22.8503C27.7024 24.9606 25.9632 26.6715 23.8178 26.6715H4.21072C2.06539 26.6715 0.326172 24.9606 0.326172 22.8503V5.039C0.326172 2.92864 2.06539 1.21777 4.21072 1.21777Z" stroke="#AF0B35" stroke-width="0.67258" stroke-miterlimit="54.3289"/>
</g>
</svg>
