<svg width="80" height="80" viewBox="0 0 80 80" fill="none" xmlns="http://www.w3.org/2000/svg">
<path d="M16 64L21.3333 58.6667M64.0542 64L58.7209 58.6667M21.3333 21.2791L16 15.9458M64.0542 15.9458L58.7209 21.2791M44.5698 21.7092C45.6348 24.9044 47.4291 27.8077 49.8107 30.1893C52.1923 32.5709 55.0956 34.3652 58.2908 35.4302L72 40L58.2908 44.5698C55.0956 45.6348 52.1923 47.4292 49.8107 49.8107C47.4291 52.1923 45.6348 55.0956 44.5698 58.2908L40 72L35.4302 58.2908C34.3652 55.0956 32.5708 52.1923 30.1893 49.8107C27.8077 47.4292 24.9044 45.6348 21.7092 44.5698L8 40L21.7092 35.4302C24.9044 34.3652 27.8077 32.5709 30.1893 30.1893C32.5708 27.8077 34.3652 24.9044 35.4302 21.7092L40 8L44.5698 21.7092Z" stroke="#9E2B47" stroke-width="1.35" stroke-miterlimit="10" stroke-linecap="round" stroke-linejoin="round"/>
</svg>
