<svg width="8" height="8" viewBox="0 0 8 8" fill="none" xmlns="http://www.w3.org/2000/svg">
<path d="M6.22076 3.68784L2.66066 0.127804C2.57832 0.045398 2.4684 0 2.3512 0C2.23399 0 2.12408 0.045398 2.04174 0.127804L1.77956 0.389915C1.60896 0.560711 1.60896 0.838302 1.77956 1.00884L4.76906 3.99834L1.77624 6.99116C1.6939 7.07357 1.64844 7.18342 1.64844 7.30056C1.64844 7.41782 1.6939 7.52768 1.77624 7.61015L2.03842 7.8722C2.12082 7.9546 2.23068 8 2.34788 8C2.46508 8 2.575 7.9546 2.65734 7.8722L6.22076 4.30891C6.30329 4.22624 6.34863 4.11587 6.34837 3.99854C6.34863 3.88075 6.30329 3.77044 6.22076 3.68784Z" fill="white"/>
</svg>
