<svg width="8" height="9" viewBox="0 0 8 9" fill="none" xmlns="http://www.w3.org/2000/svg">
<g id="Frame" clip-path="url(#clip0_1_3926)">
<g id="Group">
<path id="Vector" d="M6.22076 4.18784L2.66066 0.627804C2.57832 0.545398 2.4684 0.5 2.3512 0.5C2.23399 0.5 2.12408 0.545398 2.04174 0.627804L1.77956 0.889915C1.60896 1.06071 1.60896 1.3383 1.77956 1.50884L4.76906 4.49834L1.77624 7.49116C1.6939 7.57357 1.64844 7.68342 1.64844 7.80056C1.64844 7.91782 1.6939 8.02768 1.77624 8.11015L2.03842 8.3722C2.12082 8.4546 2.23068 8.5 2.34788 8.5C2.46508 8.5 2.575 8.4546 2.65734 8.3722L6.22076 4.80891C6.30329 4.72624 6.34863 4.61587 6.34837 4.49854C6.34863 4.38075 6.30329 4.27044 6.22076 4.18784Z" fill="#606060"/>
</g>
</g>
<defs>
<clipPath id="clip0_1_3926">
<rect width="8" height="8" fill="white" transform="translate(0 0.5)"/>
</clipPath>
</defs>
</svg>
