<svg width="14" height="15" viewBox="0 0 14 15" fill="none" xmlns="http://www.w3.org/2000/svg">
<g id="ph:caret-down-bold">
<path id="Vector" d="M9.21566 3.58957L9.25101 3.62492C9.38367 3.49226 9.4582 3.31233 9.4582 3.12472C9.4582 2.93711 9.38368 2.75718 9.25101 2.62452C9.11835 2.49186 8.93843 2.41733 8.75081 2.41733C8.5632 2.41733 8.38328 2.49186 8.25062 2.62452L8.24488 2.63026L8.24433 2.63135L3.87513 7.00055L9.21566 3.58957ZM9.21566 3.58957L9.25101 3.62492L5.37512 7.50027M9.21566 3.58957L5.37512 7.50027M5.37512 7.50027L9.25047 11.3756C9.38313 11.5083 9.45766 11.6882 9.45766 11.8758C9.45766 12.0634 9.38313 12.2434 9.25047 12.376C9.11781 12.5087 8.93788 12.5832 8.75027 12.5832C8.56266 12.5832 8.38273 12.5087 8.25007 12.376L3.87513 8.00108L5.37512 7.50027ZM3.7214 7.22998C3.75704 7.14416 3.80926 7.06622 3.87507 7.00061L3.87507 8.00101C3.80926 7.93541 3.75704 7.85747 3.7214 7.77165C3.68576 7.68581 3.66741 7.59377 3.66741 7.50081C3.66741 7.40786 3.68576 7.31582 3.7214 7.22998Z" fill="#AF0B35" stroke="#AF0B35" stroke-width="0.1"/>
</g>
</svg>
