<svg width="40" height="40" viewBox="0 0 40 40" fill="none" xmlns="http://www.w3.org/2000/svg">
<g id="Frame 5822">
<path id="Vector" d="M8 32L10.6666 29.3334M32.0271 32L29.3605 29.3334M10.6666 10.6395L8 7.97288M32.0271 7.97288L29.3605 10.6395M22.2849 10.8546C22.8174 12.4522 23.7146 13.9039 24.9054 15.0946C26.0961 16.2854 27.5478 17.1826 29.1454 17.7151L36 20L29.1454 22.2849C27.5478 22.8174 26.0961 23.7146 24.9054 24.9054C23.7146 26.0961 22.8174 27.5478 22.2849 29.1454L20 36L17.7151 29.1454C17.1826 27.5478 16.2854 26.0961 15.0946 24.9054C13.9039 23.7146 12.4522 22.8174 10.8546 22.2849L4 20L10.8546 17.7151C12.4522 17.1826 13.9039 16.2854 15.0946 15.0946C16.2854 13.9039 17.1826 12.4522 17.7151 10.8546L20 4L22.2849 10.8546Z" stroke="#393939" stroke-width="1.35" stroke-miterlimit="10" stroke-linecap="round" stroke-linejoin="round"/>
</g>
</svg>
