<?xml version="1.0" standalone="no"?>
<!DOCTYPE svg PUBLIC "-//W3C//DTD SVG 20010904//EN"
 "http://www.w3.org/TR/2001/REC-SVG-20010904/DTD/svg10.dtd">
<svg version="1.0" xmlns="http://www.w3.org/2000/svg"
 width="47.000000pt" height="40.000000pt" viewBox="0 0 47.000000 40.000000"
 preserveAspectRatio="xMidYMid meet">

<g transform="translate(0.000000,40.000000) scale(0.100000,-0.100000)"
fill="#000000" stroke="none">
<path d="M110 275 c0 -41 -4 -75 -9 -75 -5 0 -23 -12 -40 -26 -25 -20 -31 -34
-31 -64 0 -66 77 -112 126 -75 14 11 51 14 152 15 l132 0 0 120 0 120 -160 0
-160 0 0 25 0 24 133 4 132 3 -137 2 -138 2 0 -75z m320 -105 l0 -110 -118 0
-117 0 3 43 c3 39 0 47 -28 70 -17 15 -36 27 -41 27 -5 0 -9 18 -9 40 l0 40
155 0 155 0 0 -110z m-344 -6 c-3 -9 -6 -18 -6 -20 0 -2 -7 -4 -15 -4 -18 0
-19 12 -3 28 17 17 31 15 24 -4z m34 -22 c-29 -5 -36 4 -19 24 12 14 14 14 27
-3 11 -16 11 -18 -8 -21z m48 26 c16 -16 15 -28 -3 -28 -8 0 -15 2 -15 4 0 2
-3 11 -6 20 -7 19 7 21 24 4z m-88 -58 c0 -13 -7 -20 -20 -20 -13 0 -20 7 -20
20 0 13 7 20 20 20 13 0 20 -7 20 -20z m60 0 c0 -15 -7 -20 -25 -20 -18 0 -25
5 -25 20 0 15 7 20 25 20 18 0 25 -5 25 -20z m50 0 c0 -13 -7 -20 -20 -20 -13
0 -20 7 -20 20 0 13 7 20 20 20 13 0 20 -7 20 -20z m-106 -46 c4 -9 4 -19 1
-22 -6 -6 -35 18 -35 29 0 16 28 10 34 -7z m56 7 c0 -5 -6 -14 -14 -20 -12
-10 -17 -8 -26 8 -9 19 -8 21 15 21 14 0 25 -4 25 -9z m40 0 c0 -11 -29 -35
-35 -29 -10 9 7 38 21 38 8 0 14 -4 14 -9z"/>
</g>
</svg>
