<svg width="24" height="24" viewBox="0 0 24 24" fill="none" xmlns="http://www.w3.org/2000/svg">
<g id="Frame" clip-path="url(#clip0_5288_940)">
<g id="Group">
<g id="Layer 2">
<path id="Vector" d="M12 24C18.6274 24 24 18.6274 24 12C24 5.37258 18.6274 0 12 0C5.37258 0 0 5.37258 0 12C0 18.6274 5.37258 24 12 24Z" fill="#012169"/>
<path id="Vector_2" d="M10.496 0.104L6 4.6008L4.248 2.848C3.74417 3.2757 3.27621 3.74393 2.8488 4.248L4.6008 6L0.104 10.496C0.0381339 10.9947 0.00339999 11.497 0 12H1.3992L6 7.3992L10.6008 12H12V10.6008L7.3992 6L12 1.3992V0C11.497 0.00339999 10.9947 0.0381339 10.496 0.104Z" fill="white"/>
<path id="Vector_3" d="M7.19771 1.00391C6.34562 1.37949 5.54018 1.85308 4.79771 2.41511V3.99911H3.07131C2.02535 5.16423 1.21811 6.52322 0.695312 7.99911H4.79771V11.9991H7.19771V7.99911H11.9977V3.99911H7.19771V1.00391Z" fill="white"/>
<path id="Vector_4" d="M12 0C11.668 0 11.3424 0.0232 11.0168 0.0496L5.5336 5.5336L3.5144 3.5144C3.3592 3.6744 3.2176 3.8392 3.0704 4.0032L5.5336 6.4664L0 12H0.9328L6.4664 6.4664L12 12V11.0664L6.4664 5.5336L12 0Z" fill="#C8102E"/>
<path id="Vector_5" d="M6.71911 1.23633C6.22055 1.47602 5.73938 1.75029 5.27911 2.05713V4.79953H2.41511C1.85308 5.542 1.37949 6.34743 1.00391 7.19953H5.27911V11.9995H6.71911V7.19953H11.9991V4.79953H6.71911V1.23633Z" fill="#C8102E"/>
<g id="Group_2">
<path id="Vector_6" d="M6.35875 17.4804L7.08835 18.2484L6.94275 17.1996L7.99795 17.1076L7.08675 16.5668L7.67315 15.6852L6.68275 16.0596L6.35875 15.0516L6.03395 16.0596L5.04355 15.6852L5.62995 16.5668L4.71875 17.1076L5.77395 17.1996L5.62915 18.2484L6.35875 17.4804ZM14.2732 11.9932L14.7364 12.4812L14.6444 11.8148L15.3148 11.7564L14.7364 11.4132L15.1084 10.8524L14.4796 11.0908L14.2732 10.4508L14.0676 11.0908L13.438 10.8524L13.8108 11.4132L13.2324 11.7564L13.9019 11.8148L13.8099 12.4812L14.2732 11.9932ZM18.0116 7.94359L18.4756 8.43079L18.3828 7.76439L19.0532 7.70599L18.4748 7.36279L18.8468 6.80279L18.218 7.04119L18.0116 6.40039L17.806 7.04119L17.1772 6.80279L17.5491 7.36279L16.9708 7.70599L17.6412 7.76439L17.5484 8.43079L18.0116 7.94359ZM21.3348 10.9964L21.7987 11.4844L21.706 10.818L22.3764 10.7596L21.798 10.4164L22.17 9.85559L21.5412 10.094L21.3348 9.45319L21.1292 10.094L20.5004 9.85559L20.8724 10.4164L20.294 10.7596L20.9644 10.818L20.8715 11.4844L21.3348 10.9964ZM18.0116 17.9124L18.4756 18.4004L18.3828 17.734L19.0532 17.6756L18.4748 17.3324L18.8468 16.7724L18.218 17.01L18.0116 16.37L17.806 17.01L17.1772 16.7724L17.5491 17.3324L16.9708 17.6756L17.6412 17.734L17.5484 18.4004L18.0116 17.9124ZM19.5076 13.3532L19.8732 13.5804L19.7708 13.162L20.0996 12.8836L19.67 12.8524L19.5076 12.4532L19.3444 12.8524L18.9148 12.8836L19.2444 13.162L19.1412 13.5804L19.5076 13.3532Z" fill="white"/>
</g>
</g>
</g>
</g>
<defs>
<clipPath id="clip0_5288_940">
<rect width="24" height="24" fill="white"/>
</clipPath>
</defs>
</svg>
