<svg width="38" height="38" viewBox="0 0 38 38" fill="none" xmlns="http://www.w3.org/2000/svg">
<g id="Frame" clip-path="url(#clip0_3689_688)">
<g id="Group">
<g id="Layer 2">
<path id="Vector" d="M19.0663 38C29.1335 38 37.2947 29.4934 37.2947 19C37.2947 8.50659 29.1335 0 19.0663 0C8.99902 0 0.837891 8.50659 0.837891 19C0.837891 29.4934 8.99902 38 19.0663 38Z" fill="#012169"/>
<path id="Vector_2" d="M16.7816 0.164667L9.95208 7.2846L7.29074 4.50933C6.52541 5.18652 5.81456 5.92788 5.16531 6.726L7.82665 9.5L0.99587 16.6187C0.895817 17.4083 0.843055 18.2036 0.837891 19H2.96332L9.95208 11.7154L16.9408 19H19.0663V16.7846L12.0775 9.5L19.0663 2.2154V0C18.3022 0.00538331 17.5392 0.0603787 16.7816 0.164667Z" fill="white"/>
<path id="Vector_3" d="M11.7719 1.58984C10.4775 2.18452 9.25405 2.93437 8.12621 3.82424V6.33224H5.50375C3.9149 8.17702 2.68867 10.3288 1.89453 12.6656H8.12621V18.9989H11.7719V12.6656H19.0632V6.33224H11.7719V1.58984Z" fill="white"/>
<path id="Vector_4" d="M19.0663 0C18.562 0 18.0674 0.0367333 17.5728 0.0785333L9.24361 8.76153L6.17638 5.56447C5.94062 5.8178 5.72553 6.07873 5.50193 6.3384L9.24361 10.2385L0.837891 19H2.25484L10.6606 10.2385L19.0663 19V17.5218L10.6606 8.76153L19.0663 0Z" fill="#C8102E"/>
<path id="Vector_5" d="M11.0449 1.95703C10.2875 2.33654 9.55662 2.7708 8.85745 3.25663V7.59876H4.50694C3.65321 8.77434 2.93381 10.0496 2.36328 11.3988H8.85745V18.9988H11.0449V11.3988H19.0653V7.59876H11.0449V1.95703Z" fill="#C8102E"/>
<g id="Group_2">
<path id="Vector_6" d="M10.4971 27.6771L11.6054 28.8931L11.3842 27.2325L12.9871 27.0869L11.6029 26.2306L12.4937 24.8347L10.9892 25.4275L10.4971 23.8315L10.0037 25.4275L8.49924 24.8347L9.39 26.2306L8.00586 27.0869L9.60874 27.2325L9.38879 28.8931L10.4971 27.6771ZM22.5193 18.9891L23.2229 19.7617L23.0832 18.7066L24.1015 18.6141L23.2229 18.0707L23.788 17.1828L22.8328 17.5603L22.5193 16.5469L22.207 17.5603L21.2506 17.1828L21.8169 18.0707L20.9383 18.6141L21.9554 18.7066L21.8157 19.7617L22.5193 18.9891ZM28.198 12.5772L28.9029 13.3486L28.7619 12.2935L29.7803 12.201L28.9017 11.6576L29.4667 10.7709L28.5116 11.1484L28.198 10.1338L27.8857 11.1484L26.9306 10.7709L27.4956 11.6576L26.617 12.201L27.6354 12.2935L27.4944 13.3486L28.198 12.5772ZM33.2461 17.4108L33.9509 18.1835L33.81 17.1283L34.8283 17.0359L33.9497 16.4925L34.5148 15.6045L33.5596 15.982L33.2461 14.9674L32.9338 15.982L31.9786 15.6045L32.5437 16.4925L31.6651 17.0359L32.6834 17.1283L32.5425 18.1835L33.2461 17.4108ZM28.198 28.3611L28.9029 29.1338L28.7619 28.0787L29.7803 27.9862L28.9017 27.4428L29.4667 26.5561L28.5116 26.9323L28.198 25.919L27.8857 26.9323L26.9306 26.5561L27.4956 27.4428L26.617 27.9862L27.6354 28.0787L27.4944 29.1338L28.198 28.3611ZM30.4705 21.1424L31.0259 21.5021L30.8703 20.8397L31.3698 20.3989L30.7172 20.3495L30.4705 19.7174L30.2226 20.3495L29.57 20.3989L30.0707 20.8397L29.9139 21.5021L30.4705 21.1424Z" fill="white"/>
</g>
</g>
</g>
</g>
<defs>
<clipPath id="clip0_3689_688">
<rect width="36.4568" height="38" fill="white" transform="translate(0.837891)"/>
</clipPath>
</defs>
</svg>
