<svg width="24" height="24" viewBox="0 0 24 24" fill="none" xmlns="http://www.w3.org/2000/svg">
<g id="Group">
<path id="Vector" fill-rule="evenodd" clip-rule="evenodd" d="M12 0C18.6275 0 24 5.37253 24 12C24 18.6275 18.6275 24 12 24C5.37253 24 0 18.6275 0 12C0 5.37253 5.37253 0 12 0Z" fill="#003399"/>
<path id="Vector_2" fill-rule="evenodd" clip-rule="evenodd" d="M12.0294 2.875L11.7055 3.77139L10.7918 3.8003L11.5552 4.36126L11.2429 5.26343L12.0236 4.70247L12.0294 4.6909L12.0352 4.70247L12.8159 5.26343L12.5036 4.36126L13.267 3.8003L12.3532 3.77139L12.0294 2.875ZM8.03903 3.95066L7.71518 4.84705L6.80144 4.87596L7.56482 5.43693L7.25253 6.3391L8.03325 5.77813L8.03903 5.76657L8.04482 5.77813L8.82554 6.3391L8.51325 5.43693L9.27662 4.87596L8.36289 4.84705L8.03903 3.95066ZM15.9504 3.95066L15.6265 4.84705L14.7128 4.87596L15.4761 5.43693L15.1639 6.3391L15.9446 5.77813L15.9504 5.76657L15.9561 5.77813L16.7369 6.3391L16.4246 5.43693L17.1879 4.87596L16.2742 4.84705L15.9504 3.95066ZM5.14747 6.80753L4.82361 7.70392L3.90988 7.73283L4.67325 8.2938L4.36096 9.19596L5.14168 8.635L5.14747 8.62343L5.15325 8.635L5.93397 9.19596L5.62168 8.2938L6.38506 7.73283L5.47132 7.70392L5.14747 6.80753ZM18.8766 6.80753L18.5528 7.70392L17.639 7.73283L18.4024 8.2938L18.0901 9.19596L18.8708 8.635L18.8766 8.62343L18.8824 8.635L19.6631 9.19596L19.3508 8.2938L20.1142 7.73283L19.2005 7.70392L18.8766 6.80753ZM4.08915 10.7805L3.7653 11.6769L2.85156 11.7058L3.61494 12.2668L3.30265 13.169L4.08337 12.608L4.08915 12.5964L4.09494 12.608L4.87566 13.169L4.56337 12.2668L5.32674 11.7058L4.41301 11.6769L4.08915 10.7805ZM19.9234 10.7805L19.5995 11.6769L18.6858 11.7058L19.4492 12.2668L19.1369 13.169L19.9176 12.608L19.9234 12.5964L19.9292 12.608L20.7099 13.169L20.3976 12.2668L21.161 11.7058L20.2472 11.6769L19.9234 10.7805ZM5.14747 14.7189L4.82361 15.6152L3.90988 15.6442L4.67325 16.2051L4.36096 17.1073L5.14168 16.5463L5.14747 16.5348L5.15325 16.5463L5.93397 17.1073L5.62168 16.2051L6.38506 15.6442L5.47132 15.6152L5.14747 14.7189ZM18.8766 14.7189L18.5528 15.6152L17.639 15.6442L18.4024 16.2051L18.0901 17.1073L18.8708 16.5463L18.8766 16.5348L18.8824 16.5463L19.6631 17.1073L19.3508 16.2051L20.1142 15.6442L19.2005 15.6152L18.8766 14.7189ZM8.03903 17.6046L7.71518 18.501L6.80144 18.5299L7.56482 19.0909L7.25253 19.9931L8.03325 19.4321L8.03903 19.4205L8.04482 19.4321L8.82554 19.9931L8.51325 19.0909L9.27662 18.5299L8.36289 18.501L8.03903 17.6046ZM15.9504 17.6046L15.6265 18.501L14.7128 18.5299L15.4761 19.0909L15.1639 19.9931L15.9446 19.4321L15.9504 19.4205L15.9561 19.4321L16.7369 19.9931L16.4246 19.0909L17.1879 18.5299L16.2742 18.501L15.9504 17.6046ZM12.0352 18.7439L11.7113 19.6403L10.7976 19.6692L11.561 20.2302L11.2487 21.1323L12.0294 20.5714L12.0352 20.5598L12.041 20.5714L12.8217 21.1323L12.5094 20.2302L13.2728 19.6692L12.359 19.6403L12.0352 18.7439Z" fill="#FFED00"/>
</g>
</svg>
