<svg width="38" height="38" viewBox="0 0 38 38" fill="none" xmlns="http://www.w3.org/2000/svg">
<g id="Group">
<path id="Vector" fill-rule="evenodd" clip-rule="evenodd" d="M19.0663 0C29.1336 0 37.2947 8.50651 37.2947 19C37.2947 29.4935 29.1336 38 19.0663 38C8.99894 38 0.837891 29.4935 0.837891 19C0.837891 8.50651 8.99894 0 19.0663 0Z" fill="#003399"/>
<path id="Vector_2" fill-rule="evenodd" clip-rule="evenodd" d="M19.1113 4.55176L18.6194 5.97103L17.2314 6.01682L18.391 6.90501L17.9166 8.33344L19.1026 7.44525L19.1113 7.42694L19.1201 7.44525L20.3061 8.33344L19.8317 6.90501L20.9913 6.01682L19.6033 5.97103L19.1113 4.55176ZM13.0499 6.25489L12.5579 7.67417L11.1699 7.71995L12.3295 8.60814L11.8551 10.0366L13.0411 9.14838L13.0499 9.13007L13.0586 9.14838L14.2446 10.0366L13.7702 8.60814L14.9298 7.71995L13.5418 7.67417L13.0499 6.25489ZM25.0674 6.25489L24.5755 7.67417L23.1875 7.71995L24.3471 8.60814L23.8727 10.0366L25.0586 9.14838L25.0674 9.13007L25.0762 9.14838L26.2621 10.0366L25.7878 8.60814L26.9474 7.71995L25.5594 7.67417L25.0674 6.25489ZM8.65747 10.7783L8.16553 12.1975L6.77753 12.2433L7.93712 13.1315L7.46275 14.5599L8.64869 13.6718L8.65747 13.6534L8.66626 13.6718L9.8522 14.5599L9.37782 13.1315L10.5374 12.2433L9.14942 12.1975L8.65747 10.7783ZM29.5125 10.7783L29.0206 12.1975L27.6326 12.2433L28.7922 13.1315L28.3178 14.5599L29.5037 13.6718L29.5125 13.6534L29.5213 13.6718L30.7072 14.5599L30.2329 13.1315L31.3924 12.2433L30.0044 12.1975L29.5125 10.7783ZM7.04986 17.0689L6.55791 18.4881L5.16992 18.5339L6.32951 19.4221L5.85513 20.8506L7.04108 19.9624L7.04986 19.944L7.05865 19.9624L8.24459 20.8506L7.77021 19.4221L8.9298 18.5339L7.54181 18.4881L7.04986 17.0689ZM31.1025 17.0689L30.6106 18.4881L29.2226 18.5339L30.3822 19.4221L29.9078 20.8506L31.0938 19.9624L31.1025 19.944L31.1113 19.9624L32.2973 20.8506L31.8229 19.4221L32.9825 18.5339L31.5945 18.4881L31.1025 17.0689ZM8.65747 23.3045L8.16553 24.7238L6.77753 24.7696L7.93712 25.6578L7.46275 27.0862L8.64869 26.198L8.65747 26.1797L8.66626 26.198L9.8522 27.0862L9.37782 25.6578L10.5374 24.7696L9.14942 24.7238L8.65747 23.3045ZM29.5125 23.3045L29.0206 24.7238L27.6326 24.7696L28.7922 25.6578L28.3178 27.0862L29.5037 26.198L29.5125 26.1797L29.5213 26.198L30.7072 27.0862L30.2329 25.6578L31.3924 24.7696L30.0044 24.7238L29.5125 23.3045ZM13.0499 27.8737L12.5579 29.293L11.1699 29.3387L12.3295 30.2269L11.8551 31.6554L13.0411 30.7672L13.0499 30.7489L13.0586 30.7672L14.2446 31.6554L13.7702 30.2269L14.9298 29.3387L13.5418 29.293L13.0499 27.8737ZM25.0674 27.8737L24.5755 29.293L23.1875 29.3387L24.3471 30.2269L23.8727 31.6554L25.0586 30.7672L25.0674 30.7489L25.0762 30.7672L26.2621 31.6554L25.7878 30.2269L26.9474 29.3387L25.5594 29.293L25.0674 27.8737ZM19.1201 29.6775L18.6282 31.0968L17.2402 31.1426L18.3998 32.0308L17.9254 33.4592L19.1113 32.571L19.1201 32.5527L19.1289 32.571L20.3149 33.4592L19.8405 32.0308L21.0001 31.1426L19.6121 31.0968L19.1201 29.6775Z" fill="#FFED00"/>
</g>
</svg>
