<svg width="24" height="24" viewBox="0 0 24 24" fill="none" xmlns="http://www.w3.org/2000/svg">
<g id="Group">
<path id="Vector" d="M12 24.0078C18.6274 24.0078 24 18.6352 24 12.0078C24 5.38039 18.6274 0.0078125 12 0.0078125C5.37258 0.0078125 0 5.38039 0 12.0078C0 18.6352 5.37258 24.0078 12 24.0078Z" fill="#F0F0F0"/>
<g id="Group_2">
<path id="Vector_2" d="M11.479 12.0007H24.0007C24.0007 10.9176 23.8563 9.86835 23.5873 8.87024H11.479V12.0007ZM11.479 5.73983H22.2394C21.5056 4.54319 20.5686 3.48381 19.4705 2.60938H11.479V5.73983ZM12.0007 24.0007C14.8248 24.0007 17.4206 23.0246 19.4705 21.392H4.53086C6.5807 23.0246 9.1765 24.0007 12.0007 24.0007ZM1.76195 18.2615H22.2394C22.8362 17.288 23.2902 16.2337 23.5873 15.1311H0.414062C0.711198 16.2337 1.16513 17.288 1.76195 18.2615Z" fill="#D80027"/>
</g>
<path id="Vector_3" d="M5.55863 1.88178H6.65217L5.63498 2.62077L6.02353 3.8165L5.00639 3.07752L3.98925 3.8165L4.32487 2.78352C3.42762 3.53097 2.64364 4.40472 1.99744 5.37744H2.34783L1.70034 5.84783C1.59937 6.01633 1.50256 6.18729 1.41 6.36055L1.71919 7.31216L1.14234 6.89305C0.998381 7.19786 0.86745 7.50865 0.749906 7.82459L1.09055 8.87309H2.34783L1.33064 9.61208L1.71919 10.8078L0.702047 10.0688L0.0927656 10.5115C0.0309857 11.0079 4.53674e-06 11.5076 0 12.0078H12V0.0078125C9.62944 0.0078125 7.41961 0.695469 5.55863 1.88178ZM6.02353 10.8078L5.00639 10.0688L3.98925 10.8078L4.3778 9.61208L3.36061 8.87309H4.61789L5.00639 7.67736L5.39489 8.87309H6.65217L5.63498 9.61208L6.02353 10.8078ZM5.63498 6.11642L6.02353 7.31216L5.00639 6.57317L3.98925 7.31216L4.3778 6.11642L3.36061 5.37744H4.61789L5.00639 4.1817L5.39489 5.37744H6.65217L5.63498 6.11642ZM10.3279 10.8078L9.31073 10.0688L8.29359 10.8078L8.68214 9.61208L7.66495 8.87309H8.92223L9.31073 7.67736L9.69923 8.87309H10.9565L9.93933 9.61208L10.3279 10.8078ZM9.93933 6.11642L10.3279 7.31216L9.31073 6.57317L8.29359 7.31216L8.68214 6.11642L7.66495 5.37744H8.92223L9.31073 4.1817L9.69923 5.37744H10.9565L9.93933 6.11642ZM9.93933 2.62077L10.3279 3.8165L9.31073 3.07752L8.29359 3.8165L8.68214 2.62077L7.66495 1.88178H8.92223L9.31073 0.686047L9.69923 1.88178H10.9565L9.93933 2.62077Z" fill="#0052B4"/>
</g>
</svg>
