<svg width="37" height="39" viewBox="0 0 37 39" fill="none" xmlns="http://www.w3.org/2000/svg">
<g id="Group">
<path id="Vector" d="M18.3348 38.0127C28.4021 38.0127 36.5632 29.5061 36.5632 19.0127C36.5632 8.51928 28.4021 0.0126953 18.3348 0.0126953C8.26757 0.0126953 0.106445 8.51928 0.106445 19.0127C0.106445 29.5061 8.26757 38.0127 18.3348 38.0127Z" fill="#F0F0F0"/>
<g id="Group_2">
<path id="Vector_2" d="M17.5433 19.0014H36.5642C36.5642 17.2865 36.3449 15.6252 35.9362 14.0449H17.5433V19.0014ZM17.5433 9.08839H33.8887C32.7741 7.19372 31.3507 5.51636 29.6827 4.13184H17.5433V9.08839ZM18.3358 38.0014C22.6258 38.0014 26.5689 36.4559 29.6827 33.871H6.9889C10.1027 36.4559 14.0458 38.0014 18.3358 38.0014ZM2.78284 28.9144H33.8887C34.7953 27.3729 35.4849 25.7037 35.9362 23.9579H0.735352C1.18671 25.7037 1.87624 27.3729 2.78284 28.9144Z" fill="#D80027"/>
</g>
<path id="Vector_3" d="M8.55017 2.97981H10.2113L8.66617 4.14987L9.25638 6.04312L7.71131 4.87306L6.16624 6.04312L6.67607 4.40756C5.31312 5.59103 4.12221 6.97447 3.14062 8.5146H3.67287L2.68932 9.25939C2.53595 9.52618 2.38889 9.79686 2.24828 10.0712L2.71795 11.5779L1.8417 10.9143C1.62302 11.3969 1.42413 11.889 1.24558 12.3893L1.76302 14.0494H3.67287L2.12773 15.2194L2.71795 17.1127L1.17288 15.9426L0.247359 16.6436C0.153514 17.4295 0.106452 18.2207 0.106445 19.0127H18.3348V0.0126953C14.7339 0.0126953 11.3771 1.10148 8.55017 2.97981ZM9.25638 17.1127L7.71131 15.9426L6.16624 17.1127L6.75646 15.2194L5.21132 14.0494H7.12117L7.71131 12.1561L8.30146 14.0494H10.2113L8.66617 15.2194L9.25638 17.1127ZM8.66617 9.68466L9.25638 11.5779L7.71131 10.4078L6.16624 11.5779L6.75646 9.68466L5.21132 8.5146H7.12117L7.71131 6.62136L8.30146 8.5146H10.2113L8.66617 9.68466ZM15.7948 17.1127L14.2497 15.9426L12.7047 17.1127L13.2949 15.2194L11.7498 14.0494H13.6596L14.2497 12.1561L14.8399 14.0494H16.7497L15.2046 15.2194L15.7948 17.1127ZM15.2046 9.68466L15.7948 11.5779L14.2497 10.4078L12.7047 11.5779L13.2949 9.68466L11.7498 8.5146H13.6596L14.2497 6.62136L14.8399 8.5146H16.7497L15.2046 9.68466ZM15.2046 4.14987L15.7948 6.04312L14.2497 4.87306L12.7047 6.04312L13.2949 4.14987L11.7498 2.97981H13.6596L14.2497 1.08657L14.8399 2.97981H16.7497L15.2046 4.14987Z" fill="#0052B4"/>
</g>
</svg>
